<svg xmlns="http://www.w3.org/2000/svg" version="1.1" xmlns:xlink="http://www.w3.org/1999/xlink" width="1000" height="1000"><g clip-path="url(#SvgjsClipPath1047)"><rect width="1000" height="1000" fill="#000000"></rect><g transform="matrix(2,0,0,2,0,0)"><svg xmlns="http://www.w3.org/2000/svg" version="1.1" xmlns:xlink="http://www.w3.org/1999/xlink" width="500" height="500"><svg xmlns="http://www.w3.org/2000/svg" xmlns:xlink="http://www.w3.org/1999/xlink" width="500" zoomAndPan="magnify" viewBox="0 0 375 374.999991" height="500" preserveAspectRatio="xMidYMid meet" version="1.0"><defs><g></g><clipPath id="64a3af4943"><path d="M 165.644531 135.558594 L 218.894531 135.558594 L 218.894531 190.308594 L 165.644531 190.308594 Z M 165.644531 135.558594 " clip-rule="nonzero"></path></clipPath><clipPath id="SvgjsClipPath1047"><rect width="1000" height="1000" x="0" y="0" rx="500" ry="500"></rect></clipPath></defs><rect x="-37.5" width="450" fill="#ffffff" y="-37.499999" height="449.999989" fill-opacity="1"></rect><rect x="-37.5" width="450" fill="#000000" y="-37.499999" height="449.999989" fill-opacity="1"></rect><g fill="#ffffff" fill-opacity="1"><g transform="translate(159.924427, 212.473697)"><g><path d="M 4.96875 -68.328125 L 26.171875 -68.328125 C 32.578125 -68.328125 37.679688 -66.957031 41.484375 -64.21875 C 45.296875 -61.488281 47.203125 -57.0625 47.203125 -50.9375 C 47.203125 -44.082031 44.359375 -39.191406 38.671875 -36.265625 C 48.390625 -34.554688 53.25 -28.816406 53.25 -19.046875 C 53.25 -13.304688 51.257812 -8.695312 47.28125 -5.21875 C 43.3125 -1.738281 37.847656 0 30.890625 0 L 4.96875 0 Z M 20.53125 -41.578125 L 21.78125 -41.578125 C 25.257812 -41.578125 27.851562 -42.179688 29.5625 -43.390625 C 31.269531 -44.609375 32.125 -46.597656 32.125 -49.359375 C 32.125 -53.992188 28.675781 -56.3125 21.78125 -56.3125 L 20.53125 -56.3125 Z M 20.53125 -12.015625 L 25.421875 -12.015625 C 33.046875 -12.015625 36.859375 -14.550781 36.859375 -19.625 C 36.859375 -22.664062 35.90625 -24.847656 34 -26.171875 C 32.09375 -27.492188 29.234375 -28.15625 25.421875 -28.15625 L 20.53125 -28.15625 Z M 20.53125 -12.015625 "></path></g></g></g><g clip-path="url(#64a3af4943)"><path fill="#000000" d="M 218.886719 162.503906 L 211.035156 162.503906 C 197.59375 159.59375 194.605469 156.589844 191.695312 143.113281 L 191.695312 135.558594 L 190.703125 135.558594 L 190.703125 143.191406 C 187.800781 156.601562 184.796875 159.597656 171.382812 162.503906 L 165.652344 162.503906 L 165.652344 163.5 L 171.382812 163.5 C 184.796875 166.40625 187.800781 169.402344 190.703125 182.8125 L 190.703125 190.308594 L 191.695312 190.308594 L 191.695312 182.894531 C 194.605469 169.414062 197.59375 166.414062 211.035156 163.5 L 218.886719 163.5 Z M 218.886719 162.503906 " fill-opacity="1" fill-rule="nonzero"></path></g><g fill="#ffffff" fill-opacity="1"><g transform="translate(129.258936, 235.392289)"><g><path d="M 0.359375 -3.515625 L 0.359375 -4.28125 L 4.578125 -6.234375 L 4.890625 -5.546875 L 1.359375 -3.90625 L 4.890625 -2.25 L 4.578125 -1.546875 Z M 0.359375 -3.515625 "></path></g></g></g><g fill="#ffffff" fill-opacity="1"><g transform="translate(138.115079, 235.392289)"><g><path d="M 1.078125 -8.046875 L 3 -8.046875 C 3.394531 -8.046875 3.765625 -7.984375 4.109375 -7.859375 C 4.453125 -7.742188 4.742188 -7.578125 4.984375 -7.359375 C 5.234375 -7.140625 5.425781 -6.878906 5.5625 -6.578125 C 5.695312 -6.285156 5.765625 -5.960938 5.765625 -5.609375 C 5.765625 -5.265625 5.695312 -4.941406 5.5625 -4.640625 C 5.425781 -4.347656 5.234375 -4.09375 4.984375 -3.875 C 4.742188 -3.65625 4.453125 -3.484375 4.109375 -3.359375 C 3.765625 -3.242188 3.394531 -3.1875 3 -3.1875 L 1.921875 -3.1875 L 1.921875 0 L 1.078125 0 Z M 3 -3.96875 C 3.570312 -3.96875 4.035156 -4.117188 4.390625 -4.421875 C 4.742188 -4.722656 4.921875 -5.125 4.921875 -5.625 C 4.921875 -6.125 4.742188 -6.519531 4.390625 -6.8125 C 4.035156 -7.113281 3.570312 -7.265625 3 -7.265625 L 1.921875 -7.265625 L 1.921875 -3.96875 Z M 3 -3.96875 "></path></g></g></g><g fill="#ffffff" fill-opacity="1"><g transform="translate(148.015232, 235.392289)"><g><path d="M 4.625 0.125 C 4.070312 0.125 3.550781 0.015625 3.0625 -0.203125 C 2.570312 -0.421875 2.144531 -0.71875 1.78125 -1.09375 C 1.414062 -1.46875 1.125 -1.90625 0.90625 -2.40625 C 0.695312 -2.90625 0.59375 -3.441406 0.59375 -4.015625 C 0.59375 -4.585938 0.695312 -5.125 0.90625 -5.625 C 1.125 -6.132812 1.414062 -6.578125 1.78125 -6.953125 C 2.144531 -7.328125 2.570312 -7.617188 3.0625 -7.828125 C 3.550781 -8.046875 4.070312 -8.15625 4.625 -8.15625 C 5.175781 -8.15625 5.691406 -8.046875 6.171875 -7.828125 C 6.660156 -7.617188 7.085938 -7.328125 7.453125 -6.953125 C 7.816406 -6.578125 8.101562 -6.140625 8.3125 -5.640625 C 8.53125 -5.140625 8.640625 -4.597656 8.640625 -4.015625 C 8.640625 -3.453125 8.53125 -2.921875 8.3125 -2.421875 C 8.101562 -1.921875 7.816406 -1.484375 7.453125 -1.109375 C 7.085938 -0.734375 6.660156 -0.429688 6.171875 -0.203125 C 5.691406 0.015625 5.175781 0.125 4.625 0.125 Z M 4.625 -0.703125 C 5.0625 -0.703125 5.472656 -0.785156 5.859375 -0.953125 C 6.242188 -1.128906 6.570312 -1.363281 6.84375 -1.65625 C 7.125 -1.945312 7.34375 -2.296875 7.5 -2.703125 C 7.65625 -3.109375 7.734375 -3.546875 7.734375 -4.015625 C 7.734375 -4.492188 7.65625 -4.929688 7.5 -5.328125 C 7.34375 -5.734375 7.125 -6.082031 6.84375 -6.375 C 6.570312 -6.675781 6.242188 -6.910156 5.859375 -7.078125 C 5.472656 -7.242188 5.0625 -7.328125 4.625 -7.328125 C 4.175781 -7.328125 3.757812 -7.242188 3.375 -7.078125 C 3 -6.910156 2.671875 -6.675781 2.390625 -6.375 C 2.117188 -6.082031 1.898438 -5.734375 1.734375 -5.328125 C 1.578125 -4.929688 1.5 -4.492188 1.5 -4.015625 C 1.5 -3.546875 1.578125 -3.109375 1.734375 -2.703125 C 1.898438 -2.296875 2.117188 -1.945312 2.390625 -1.65625 C 2.671875 -1.363281 3 -1.128906 3.375 -0.953125 C 3.757812 -0.785156 4.175781 -0.703125 4.625 -0.703125 Z M 4.625 -0.703125 "></path></g></g></g><g fill="#ffffff" fill-opacity="1"><g transform="translate(160.855385, 235.392289)"><g><path d="M 1.078125 -8.046875 L 3 -8.046875 C 3.394531 -8.046875 3.765625 -7.984375 4.109375 -7.859375 C 4.453125 -7.742188 4.742188 -7.582031 4.984375 -7.375 C 5.234375 -7.164062 5.425781 -6.914062 5.5625 -6.625 C 5.695312 -6.332031 5.765625 -6.015625 5.765625 -5.671875 C 5.765625 -5.390625 5.71875 -5.128906 5.625 -4.890625 C 5.539062 -4.648438 5.414062 -4.429688 5.25 -4.234375 C 5.09375 -4.035156 4.898438 -3.863281 4.671875 -3.71875 C 4.453125 -3.582031 4.210938 -3.476562 3.953125 -3.40625 L 6.234375 0 L 5.234375 0 L 3 -3.3125 L 1.921875 -3.3125 L 1.921875 0 L 1.078125 0 Z M 3 -4.09375 C 3.570312 -4.09375 4.035156 -4.234375 4.390625 -4.515625 C 4.742188 -4.804688 4.921875 -5.195312 4.921875 -5.6875 C 4.921875 -6.164062 4.742188 -6.546875 4.390625 -6.828125 C 4.035156 -7.117188 3.570312 -7.265625 3 -7.265625 L 1.921875 -7.265625 L 1.921875 -4.09375 Z M 3 -4.09375 "></path></g></g></g><g fill="#ffffff" fill-opacity="1"><g transform="translate(171.175534, 235.392289)"><g><path d="M 3 -7.265625 L 0.359375 -7.265625 L 0.359375 -8.046875 L 6.484375 -8.046875 L 6.484375 -7.265625 L 3.84375 -7.265625 L 3.84375 0 L 3 0 Z M 3 -7.265625 "></path></g></g></g><g fill="#ffffff" fill-opacity="1"><g transform="translate(181.615687, 235.392289)"><g><path d="M 1.078125 -8.046875 L 5.21875 -8.046875 L 5.21875 -7.265625 L 1.921875 -7.265625 L 1.921875 -4.3125 L 4.4375 -4.3125 L 4.4375 -3.546875 L 1.921875 -3.546875 L 1.921875 0 L 1.078125 0 Z M 1.078125 -8.046875 "></path></g></g></g><g fill="#ffffff" fill-opacity="1"><g transform="translate(190.915836, 235.392289)"><g><path d="M 4.625 0.125 C 4.070312 0.125 3.550781 0.015625 3.0625 -0.203125 C 2.570312 -0.421875 2.144531 -0.71875 1.78125 -1.09375 C 1.414062 -1.46875 1.125 -1.90625 0.90625 -2.40625 C 0.695312 -2.90625 0.59375 -3.441406 0.59375 -4.015625 C 0.59375 -4.585938 0.695312 -5.125 0.90625 -5.625 C 1.125 -6.132812 1.414062 -6.578125 1.78125 -6.953125 C 2.144531 -7.328125 2.570312 -7.617188 3.0625 -7.828125 C 3.550781 -8.046875 4.070312 -8.15625 4.625 -8.15625 C 5.175781 -8.15625 5.691406 -8.046875 6.171875 -7.828125 C 6.660156 -7.617188 7.085938 -7.328125 7.453125 -6.953125 C 7.816406 -6.578125 8.101562 -6.140625 8.3125 -5.640625 C 8.53125 -5.140625 8.640625 -4.597656 8.640625 -4.015625 C 8.640625 -3.453125 8.53125 -2.921875 8.3125 -2.421875 C 8.101562 -1.921875 7.816406 -1.484375 7.453125 -1.109375 C 7.085938 -0.734375 6.660156 -0.429688 6.171875 -0.203125 C 5.691406 0.015625 5.175781 0.125 4.625 0.125 Z M 4.625 -0.703125 C 5.0625 -0.703125 5.472656 -0.785156 5.859375 -0.953125 C 6.242188 -1.128906 6.570312 -1.363281 6.84375 -1.65625 C 7.125 -1.945312 7.34375 -2.296875 7.5 -2.703125 C 7.65625 -3.109375 7.734375 -3.546875 7.734375 -4.015625 C 7.734375 -4.492188 7.65625 -4.929688 7.5 -5.328125 C 7.34375 -5.734375 7.125 -6.082031 6.84375 -6.375 C 6.570312 -6.675781 6.242188 -6.910156 5.859375 -7.078125 C 5.472656 -7.242188 5.0625 -7.328125 4.625 -7.328125 C 4.175781 -7.328125 3.757812 -7.242188 3.375 -7.078125 C 3 -6.910156 2.671875 -6.675781 2.390625 -6.375 C 2.117188 -6.082031 1.898438 -5.734375 1.734375 -5.328125 C 1.578125 -4.929688 1.5 -4.492188 1.5 -4.015625 C 1.5 -3.546875 1.578125 -3.109375 1.734375 -2.703125 C 1.898438 -2.296875 2.117188 -1.945312 2.390625 -1.65625 C 2.671875 -1.363281 3 -1.128906 3.375 -0.953125 C 3.757812 -0.785156 4.175781 -0.703125 4.625 -0.703125 Z M 4.625 -0.703125 "></path></g></g></g><g fill="#ffffff" fill-opacity="1"><g transform="translate(203.755986, 235.392289)"><g><path d="M 1.078125 -8.046875 L 1.921875 -8.046875 L 1.921875 -0.78125 L 5.15625 -0.78125 L 5.15625 0 L 1.078125 0 Z M 1.078125 -8.046875 "></path></g></g></g><g fill="#ffffff" fill-opacity="1"><g transform="translate(213.056135, 235.392289)"><g><path d="M 1.078125 -8.046875 L 1.921875 -8.046875 L 1.921875 0 L 1.078125 0 Z M 1.078125 -8.046875 "></path></g></g></g><g fill="#ffffff" fill-opacity="1"><g transform="translate(219.65628, 235.392289)"><g><path d="M 4.625 0.125 C 4.070312 0.125 3.550781 0.015625 3.0625 -0.203125 C 2.570312 -0.421875 2.144531 -0.71875 1.78125 -1.09375 C 1.414062 -1.46875 1.125 -1.90625 0.90625 -2.40625 C 0.695312 -2.90625 0.59375 -3.441406 0.59375 -4.015625 C 0.59375 -4.585938 0.695312 -5.125 0.90625 -5.625 C 1.125 -6.132812 1.414062 -6.578125 1.78125 -6.953125 C 2.144531 -7.328125 2.570312 -7.617188 3.0625 -7.828125 C 3.550781 -8.046875 4.070312 -8.15625 4.625 -8.15625 C 5.175781 -8.15625 5.691406 -8.046875 6.171875 -7.828125 C 6.660156 -7.617188 7.085938 -7.328125 7.453125 -6.953125 C 7.816406 -6.578125 8.101562 -6.140625 8.3125 -5.640625 C 8.53125 -5.140625 8.640625 -4.597656 8.640625 -4.015625 C 8.640625 -3.453125 8.53125 -2.921875 8.3125 -2.421875 C 8.101562 -1.921875 7.816406 -1.484375 7.453125 -1.109375 C 7.085938 -0.734375 6.660156 -0.429688 6.171875 -0.203125 C 5.691406 0.015625 5.175781 0.125 4.625 0.125 Z M 4.625 -0.703125 C 5.0625 -0.703125 5.472656 -0.785156 5.859375 -0.953125 C 6.242188 -1.128906 6.570312 -1.363281 6.84375 -1.65625 C 7.125 -1.945312 7.34375 -2.296875 7.5 -2.703125 C 7.65625 -3.109375 7.734375 -3.546875 7.734375 -4.015625 C 7.734375 -4.492188 7.65625 -4.929688 7.5 -5.328125 C 7.34375 -5.734375 7.125 -6.082031 6.84375 -6.375 C 6.570312 -6.675781 6.242188 -6.910156 5.859375 -7.078125 C 5.472656 -7.242188 5.0625 -7.328125 4.625 -7.328125 C 4.175781 -7.328125 3.757812 -7.242188 3.375 -7.078125 C 3 -6.910156 2.671875 -6.675781 2.390625 -6.375 C 2.117188 -6.082031 1.898438 -5.734375 1.734375 -5.328125 C 1.578125 -4.929688 1.5 -4.492188 1.5 -4.015625 C 1.5 -3.546875 1.578125 -3.109375 1.734375 -2.703125 C 1.898438 -2.296875 2.117188 -1.945312 2.390625 -1.65625 C 2.671875 -1.363281 3 -1.128906 3.375 -0.953125 C 3.757812 -0.785156 4.175781 -0.703125 4.625 -0.703125 Z M 4.625 -0.703125 "></path></g></g></g><g fill="#ffffff" fill-opacity="1"><g transform="translate(232.496436, 235.392289)"><g><path d="M 3.546875 -8.046875 L 4.375 -8.046875 L 0.828125 1.4375 L 0 1.4375 Z M 3.546875 -8.046875 "></path></g></g></g><g fill="#ffffff" fill-opacity="1"><g transform="translate(240.464579, 235.392289)"><g><path d="M 0.359375 -2.25 L 3.90625 -3.90625 L 0.359375 -5.546875 L 0.6875 -6.234375 L 4.890625 -4.28125 L 4.890625 -3.515625 L 0.6875 -1.546875 Z M 0.359375 -2.25 "></path></g></g></g></svg></svg></g></g></svg>