<svg xmlns="http://www.w3.org/2000/svg" xmlns:xlink="http://www.w3.org/1999/xlink" width="500" zoomAndPan="magnify" viewBox="0 0 375 374.999991" height="500" preserveAspectRatio="xMidYMid meet" version="1.0"><defs><g/><clipPath id="91c7fbfb1f"><path d="M 150.433594 153.085938 L 213.433594 153.085938 L 213.433594 217.585938 L 150.433594 217.585938 Z M 150.433594 153.085938 " clip-rule="nonzero"/></clipPath></defs><g fill="#000000" fill-opacity="1"><g transform="translate(79.492898, 207.808213)"><g><path d="M 48.6875 -37.171875 C 52.664062 -32.816406 54.65625 -27.492188 54.65625 -21.203125 C 54.65625 -14.910156 52.664062 -9.59375 48.6875 -5.25 C 44.71875 -0.914062 39.671875 1.25 33.546875 1.25 C 27.910156 1.25 23.269531 -0.765625 19.625 -4.796875 L 19.46875 -4.796875 L 19.46875 0 L 4.96875 0 L 4.96875 -71.21875 L 19.625 -71.21875 L 19.625 -38.421875 C 23.269531 -41.953125 27.910156 -43.71875 33.546875 -43.71875 C 39.671875 -43.71875 44.71875 -41.535156 48.6875 -37.171875 Z M 36.359375 -14.03125 C 38.179688 -15.882812 39.09375 -18.273438 39.09375 -21.203125 C 39.09375 -24.128906 38.140625 -26.53125 36.234375 -28.40625 C 34.328125 -30.28125 31.96875 -31.21875 29.15625 -31.21875 C 26.394531 -31.21875 24.0625 -30.28125 22.15625 -28.40625 C 20.25 -26.53125 19.296875 -24.128906 19.296875 -21.203125 C 19.296875 -18.328125 20.21875 -15.953125 22.0625 -14.078125 C 23.914062 -12.203125 26.28125 -11.265625 29.15625 -11.265625 C 32.132812 -11.265625 34.535156 -12.1875 36.359375 -14.03125 Z M 36.359375 -14.03125 "/></g></g></g><g fill="#000000" fill-opacity="1"><g transform="translate(129.588938, 207.808213)"><g><path d="M 7.859375 -5.25 C 3.890625 -9.59375 1.90625 -14.910156 1.90625 -21.203125 C 1.90625 -27.492188 3.890625 -32.816406 7.859375 -37.171875 C 11.835938 -41.535156 16.890625 -43.71875 23.015625 -43.71875 C 28.648438 -43.71875 33.289062 -41.953125 36.9375 -38.421875 L 36.9375 -42.484375 L 51.59375 -42.484375 L 51.59375 0 L 37.09375 0 L 37.09375 -4.796875 L 36.9375 -4.796875 C 33.289062 -0.765625 28.648438 1.25 23.015625 1.25 C 16.890625 1.25 11.835938 -0.914062 7.859375 -5.25 Z M 20.328125 -28.40625 C 18.421875 -26.53125 17.46875 -24.128906 17.46875 -21.203125 C 17.46875 -18.273438 18.378906 -15.882812 20.203125 -14.03125 C 22.023438 -12.1875 24.425781 -11.265625 27.40625 -11.265625 C 30.28125 -11.265625 32.640625 -12.203125 34.484375 -14.078125 C 36.335938 -15.953125 37.265625 -18.328125 37.265625 -21.203125 C 37.265625 -24.128906 36.3125 -26.53125 34.40625 -28.40625 C 32.5 -30.28125 30.164062 -31.21875 27.40625 -31.21875 C 24.59375 -31.21875 22.234375 -30.28125 20.328125 -28.40625 Z M 20.328125 -28.40625 "/></g></g></g><g fill="#000000" fill-opacity="1"><g transform="translate(179.684978, 207.808213)"><g><path d="M 4.96875 0 L 4.96875 -42.484375 L 19.625 -42.484375 L 19.625 -38.015625 L 19.796875 -38.015625 C 23.597656 -41.816406 27.65625 -43.71875 31.96875 -43.71875 C 34.0625 -43.71875 36.144531 -43.441406 38.21875 -42.890625 C 40.289062 -42.335938 42.273438 -41.484375 44.171875 -40.328125 C 46.078125 -39.171875 47.625 -37.53125 48.8125 -35.40625 C 50 -33.28125 50.59375 -30.804688 50.59375 -27.984375 L 50.59375 0 L 35.9375 0 L 35.9375 -24.015625 C 35.9375 -26.222656 35.234375 -28.15625 33.828125 -29.8125 C 32.421875 -31.46875 30.585938 -32.296875 28.328125 -32.296875 C 26.117188 -32.296875 24.113281 -31.4375 22.3125 -29.71875 C 20.519531 -28.007812 19.625 -26.109375 19.625 -24.015625 L 19.625 0 Z M 4.96875 0 "/></g></g></g><g fill="#000000" fill-opacity="1"><g transform="translate(227.959313, 207.808213)"><g><path d="M 47.953125 -19.21875 L 17.140625 -19.21875 C 17.140625 -16.226562 18.101562 -14.015625 20.03125 -12.578125 C 21.96875 -11.148438 24.066406 -10.4375 26.328125 -10.4375 C 28.703125 -10.4375 30.578125 -10.753906 31.953125 -11.390625 C 33.335938 -12.023438 34.914062 -13.28125 36.6875 -15.15625 L 47.28125 -9.859375 C 42.863281 -2.453125 35.523438 1.25 25.265625 1.25 C 18.859375 1.25 13.363281 -0.941406 8.78125 -5.328125 C 4.195312 -9.722656 1.90625 -15.007812 1.90625 -21.1875 C 1.90625 -27.375 4.195312 -32.675781 8.78125 -37.09375 C 13.363281 -41.507812 18.859375 -43.71875 25.265625 -43.71875 C 31.992188 -43.71875 37.46875 -41.769531 41.6875 -37.875 C 45.914062 -33.988281 48.03125 -28.429688 48.03125 -21.203125 C 48.03125 -20.203125 48.003906 -19.539062 47.953125 -19.21875 Z M 17.5625 -27.328125 L 33.703125 -27.328125 C 33.367188 -29.535156 32.5 -31.234375 31.09375 -32.421875 C 29.6875 -33.609375 27.878906 -34.203125 25.671875 -34.203125 C 23.242188 -34.203125 21.3125 -33.566406 19.875 -32.296875 C 18.4375 -31.023438 17.664062 -29.367188 17.5625 -27.328125 Z M 17.5625 -27.328125 "/></g></g></g><g fill="#000000" fill-opacity="1"><g transform="translate(271.430985, 207.808213)"><g><path d="M 4.96875 0 L 4.96875 -42.484375 L 19.625 -42.484375 L 19.625 -36.359375 L 19.796875 -36.359375 C 19.898438 -36.578125 20.078125 -36.851562 20.328125 -37.1875 C 20.578125 -37.519531 21.113281 -38.097656 21.9375 -38.921875 C 22.769531 -39.753906 23.65625 -40.5 24.59375 -41.15625 C 25.53125 -41.820312 26.742188 -42.414062 28.234375 -42.9375 C 29.722656 -43.457031 31.242188 -43.71875 32.796875 -43.71875 C 34.398438 -43.71875 35.972656 -43.5 37.515625 -43.0625 C 39.054688 -42.625 40.1875 -42.179688 40.90625 -41.734375 L 42.0625 -41.078125 L 35.9375 -28.65625 C 34.113281 -30.195312 31.578125 -30.96875 28.328125 -30.96875 C 26.554688 -30.96875 25.035156 -30.582031 23.765625 -29.8125 C 22.492188 -29.039062 21.597656 -28.101562 21.078125 -27 C 20.554688 -25.894531 20.179688 -24.953125 19.953125 -24.171875 C 19.734375 -23.398438 19.625 -22.796875 19.625 -22.359375 L 19.625 0 Z M 4.96875 0 "/></g></g></g><g clip-path="url(#91c7fbfb1f)"><path fill="#ffffff" d="M 213.171875 184.804688 L 203.917969 184.804688 C 188.082031 181.378906 184.558594 177.84375 181.128906 161.980469 L 181.128906 153.089844 L 179.960938 153.089844 L 179.960938 162.074219 C 176.539062 177.855469 173 181.382812 157.191406 184.804688 L 150.441406 184.804688 L 150.441406 185.976562 L 157.191406 185.976562 C 173 189.398438 176.539062 192.921875 179.960938 208.707031 L 179.960938 217.527344 L 181.128906 217.527344 L 181.128906 208.800781 C 184.558594 192.9375 188.082031 189.402344 203.917969 185.976562 L 213.171875 185.976562 Z M 213.171875 184.804688 " fill-opacity="1" fill-rule="nonzero"/></g><g fill="#000000" fill-opacity="1"><g transform="translate(137.855533, 230.726822)"><g><path d="M 0.359375 -3.515625 L 0.359375 -4.28125 L 4.578125 -6.234375 L 4.890625 -5.546875 L 1.359375 -3.90625 L 4.890625 -2.25 L 4.578125 -1.546875 Z M 0.359375 -3.515625 "/></g></g></g><g fill="#000000" fill-opacity="1"><g transform="translate(146.711676, 230.726822)"><g><path d="M 1.078125 -8.046875 L 3 -8.046875 C 3.394531 -8.046875 3.765625 -7.984375 4.109375 -7.859375 C 4.453125 -7.742188 4.742188 -7.578125 4.984375 -7.359375 C 5.234375 -7.140625 5.425781 -6.878906 5.5625 -6.578125 C 5.695312 -6.285156 5.765625 -5.960938 5.765625 -5.609375 C 5.765625 -5.265625 5.695312 -4.941406 5.5625 -4.640625 C 5.425781 -4.347656 5.234375 -4.09375 4.984375 -3.875 C 4.742188 -3.65625 4.453125 -3.484375 4.109375 -3.359375 C 3.765625 -3.242188 3.394531 -3.1875 3 -3.1875 L 1.921875 -3.1875 L 1.921875 0 L 1.078125 0 Z M 3 -3.96875 C 3.570312 -3.96875 4.035156 -4.117188 4.390625 -4.421875 C 4.742188 -4.722656 4.921875 -5.125 4.921875 -5.625 C 4.921875 -6.125 4.742188 -6.519531 4.390625 -6.8125 C 4.035156 -7.113281 3.570312 -7.265625 3 -7.265625 L 1.921875 -7.265625 L 1.921875 -3.96875 Z M 3 -3.96875 "/></g></g></g><g fill="#000000" fill-opacity="1"><g transform="translate(156.611829, 230.726822)"><g><path d="M 4.625 0.125 C 4.070312 0.125 3.550781 0.015625 3.0625 -0.203125 C 2.570312 -0.421875 2.144531 -0.71875 1.78125 -1.09375 C 1.414062 -1.46875 1.125 -1.90625 0.90625 -2.40625 C 0.695312 -2.90625 0.59375 -3.441406 0.59375 -4.015625 C 0.59375 -4.585938 0.695312 -5.125 0.90625 -5.625 C 1.125 -6.132812 1.414062 -6.578125 1.78125 -6.953125 C 2.144531 -7.328125 2.570312 -7.617188 3.0625 -7.828125 C 3.550781 -8.046875 4.070312 -8.15625 4.625 -8.15625 C 5.175781 -8.15625 5.691406 -8.046875 6.171875 -7.828125 C 6.660156 -7.617188 7.085938 -7.328125 7.453125 -6.953125 C 7.816406 -6.578125 8.101562 -6.140625 8.3125 -5.640625 C 8.53125 -5.140625 8.640625 -4.597656 8.640625 -4.015625 C 8.640625 -3.453125 8.53125 -2.921875 8.3125 -2.421875 C 8.101562 -1.921875 7.816406 -1.484375 7.453125 -1.109375 C 7.085938 -0.734375 6.660156 -0.429688 6.171875 -0.203125 C 5.691406 0.015625 5.175781 0.125 4.625 0.125 Z M 4.625 -0.703125 C 5.0625 -0.703125 5.472656 -0.785156 5.859375 -0.953125 C 6.242188 -1.128906 6.570312 -1.363281 6.84375 -1.65625 C 7.125 -1.945312 7.34375 -2.296875 7.5 -2.703125 C 7.65625 -3.109375 7.734375 -3.546875 7.734375 -4.015625 C 7.734375 -4.492188 7.65625 -4.929688 7.5 -5.328125 C 7.34375 -5.734375 7.125 -6.082031 6.84375 -6.375 C 6.570312 -6.675781 6.242188 -6.910156 5.859375 -7.078125 C 5.472656 -7.242188 5.0625 -7.328125 4.625 -7.328125 C 4.175781 -7.328125 3.757812 -7.242188 3.375 -7.078125 C 3 -6.910156 2.671875 -6.675781 2.390625 -6.375 C 2.117188 -6.082031 1.898438 -5.734375 1.734375 -5.328125 C 1.578125 -4.929688 1.5 -4.492188 1.5 -4.015625 C 1.5 -3.546875 1.578125 -3.109375 1.734375 -2.703125 C 1.898438 -2.296875 2.117188 -1.945312 2.390625 -1.65625 C 2.671875 -1.363281 3 -1.128906 3.375 -0.953125 C 3.757812 -0.785156 4.175781 -0.703125 4.625 -0.703125 Z M 4.625 -0.703125 "/></g></g></g><g fill="#000000" fill-opacity="1"><g transform="translate(169.451982, 230.726822)"><g><path d="M 1.078125 -8.046875 L 3 -8.046875 C 3.394531 -8.046875 3.765625 -7.984375 4.109375 -7.859375 C 4.453125 -7.742188 4.742188 -7.582031 4.984375 -7.375 C 5.234375 -7.164062 5.425781 -6.914062 5.5625 -6.625 C 5.695312 -6.332031 5.765625 -6.015625 5.765625 -5.671875 C 5.765625 -5.390625 5.71875 -5.128906 5.625 -4.890625 C 5.539062 -4.648438 5.414062 -4.429688 5.25 -4.234375 C 5.09375 -4.035156 4.898438 -3.863281 4.671875 -3.71875 C 4.453125 -3.582031 4.210938 -3.476562 3.953125 -3.40625 L 6.234375 0 L 5.234375 0 L 3 -3.3125 L 1.921875 -3.3125 L 1.921875 0 L 1.078125 0 Z M 3 -4.09375 C 3.570312 -4.09375 4.035156 -4.234375 4.390625 -4.515625 C 4.742188 -4.804688 4.921875 -5.195312 4.921875 -5.6875 C 4.921875 -6.164062 4.742188 -6.546875 4.390625 -6.828125 C 4.035156 -7.117188 3.570312 -7.265625 3 -7.265625 L 1.921875 -7.265625 L 1.921875 -4.09375 Z M 3 -4.09375 "/></g></g></g><g fill="#000000" fill-opacity="1"><g transform="translate(179.772132, 230.726822)"><g><path d="M 3 -7.265625 L 0.359375 -7.265625 L 0.359375 -8.046875 L 6.484375 -8.046875 L 6.484375 -7.265625 L 3.84375 -7.265625 L 3.84375 0 L 3 0 Z M 3 -7.265625 "/></g></g></g><g fill="#000000" fill-opacity="1"><g transform="translate(190.212284, 230.726822)"><g><path d="M 1.078125 -8.046875 L 5.21875 -8.046875 L 5.21875 -7.265625 L 1.921875 -7.265625 L 1.921875 -4.3125 L 4.4375 -4.3125 L 4.4375 -3.546875 L 1.921875 -3.546875 L 1.921875 0 L 1.078125 0 Z M 1.078125 -8.046875 "/></g></g></g><g fill="#000000" fill-opacity="1"><g transform="translate(199.512433, 230.726822)"><g><path d="M 4.625 0.125 C 4.070312 0.125 3.550781 0.015625 3.0625 -0.203125 C 2.570312 -0.421875 2.144531 -0.71875 1.78125 -1.09375 C 1.414062 -1.46875 1.125 -1.90625 0.90625 -2.40625 C 0.695312 -2.90625 0.59375 -3.441406 0.59375 -4.015625 C 0.59375 -4.585938 0.695312 -5.125 0.90625 -5.625 C 1.125 -6.132812 1.414062 -6.578125 1.78125 -6.953125 C 2.144531 -7.328125 2.570312 -7.617188 3.0625 -7.828125 C 3.550781 -8.046875 4.070312 -8.15625 4.625 -8.15625 C 5.175781 -8.15625 5.691406 -8.046875 6.171875 -7.828125 C 6.660156 -7.617188 7.085938 -7.328125 7.453125 -6.953125 C 7.816406 -6.578125 8.101562 -6.140625 8.3125 -5.640625 C 8.53125 -5.140625 8.640625 -4.597656 8.640625 -4.015625 C 8.640625 -3.453125 8.53125 -2.921875 8.3125 -2.421875 C 8.101562 -1.921875 7.816406 -1.484375 7.453125 -1.109375 C 7.085938 -0.734375 6.660156 -0.429688 6.171875 -0.203125 C 5.691406 0.015625 5.175781 0.125 4.625 0.125 Z M 4.625 -0.703125 C 5.0625 -0.703125 5.472656 -0.785156 5.859375 -0.953125 C 6.242188 -1.128906 6.570312 -1.363281 6.84375 -1.65625 C 7.125 -1.945312 7.34375 -2.296875 7.5 -2.703125 C 7.65625 -3.109375 7.734375 -3.546875 7.734375 -4.015625 C 7.734375 -4.492188 7.65625 -4.929688 7.5 -5.328125 C 7.34375 -5.734375 7.125 -6.082031 6.84375 -6.375 C 6.570312 -6.675781 6.242188 -6.910156 5.859375 -7.078125 C 5.472656 -7.242188 5.0625 -7.328125 4.625 -7.328125 C 4.175781 -7.328125 3.757812 -7.242188 3.375 -7.078125 C 3 -6.910156 2.671875 -6.675781 2.390625 -6.375 C 2.117188 -6.082031 1.898438 -5.734375 1.734375 -5.328125 C 1.578125 -4.929688 1.5 -4.492188 1.5 -4.015625 C 1.5 -3.546875 1.578125 -3.109375 1.734375 -2.703125 C 1.898438 -2.296875 2.117188 -1.945312 2.390625 -1.65625 C 2.671875 -1.363281 3 -1.128906 3.375 -0.953125 C 3.757812 -0.785156 4.175781 -0.703125 4.625 -0.703125 Z M 4.625 -0.703125 "/></g></g></g><g fill="#000000" fill-opacity="1"><g transform="translate(212.352583, 230.726822)"><g><path d="M 1.078125 -8.046875 L 1.921875 -8.046875 L 1.921875 -0.78125 L 5.15625 -0.78125 L 5.15625 0 L 1.078125 0 Z M 1.078125 -8.046875 "/></g></g></g><g fill="#000000" fill-opacity="1"><g transform="translate(221.652733, 230.726822)"><g><path d="M 1.078125 -8.046875 L 1.921875 -8.046875 L 1.921875 0 L 1.078125 0 Z M 1.078125 -8.046875 "/></g></g></g><g fill="#000000" fill-opacity="1"><g transform="translate(228.252878, 230.726822)"><g><path d="M 4.625 0.125 C 4.070312 0.125 3.550781 0.015625 3.0625 -0.203125 C 2.570312 -0.421875 2.144531 -0.71875 1.78125 -1.09375 C 1.414062 -1.46875 1.125 -1.90625 0.90625 -2.40625 C 0.695312 -2.90625 0.59375 -3.441406 0.59375 -4.015625 C 0.59375 -4.585938 0.695312 -5.125 0.90625 -5.625 C 1.125 -6.132812 1.414062 -6.578125 1.78125 -6.953125 C 2.144531 -7.328125 2.570312 -7.617188 3.0625 -7.828125 C 3.550781 -8.046875 4.070312 -8.15625 4.625 -8.15625 C 5.175781 -8.15625 5.691406 -8.046875 6.171875 -7.828125 C 6.660156 -7.617188 7.085938 -7.328125 7.453125 -6.953125 C 7.816406 -6.578125 8.101562 -6.140625 8.3125 -5.640625 C 8.53125 -5.140625 8.640625 -4.597656 8.640625 -4.015625 C 8.640625 -3.453125 8.53125 -2.921875 8.3125 -2.421875 C 8.101562 -1.921875 7.816406 -1.484375 7.453125 -1.109375 C 7.085938 -0.734375 6.660156 -0.429688 6.171875 -0.203125 C 5.691406 0.015625 5.175781 0.125 4.625 0.125 Z M 4.625 -0.703125 C 5.0625 -0.703125 5.472656 -0.785156 5.859375 -0.953125 C 6.242188 -1.128906 6.570312 -1.363281 6.84375 -1.65625 C 7.125 -1.945312 7.34375 -2.296875 7.5 -2.703125 C 7.65625 -3.109375 7.734375 -3.546875 7.734375 -4.015625 C 7.734375 -4.492188 7.65625 -4.929688 7.5 -5.328125 C 7.34375 -5.734375 7.125 -6.082031 6.84375 -6.375 C 6.570312 -6.675781 6.242188 -6.910156 5.859375 -7.078125 C 5.472656 -7.242188 5.0625 -7.328125 4.625 -7.328125 C 4.175781 -7.328125 3.757812 -7.242188 3.375 -7.078125 C 3 -6.910156 2.671875 -6.675781 2.390625 -6.375 C 2.117188 -6.082031 1.898438 -5.734375 1.734375 -5.328125 C 1.578125 -4.929688 1.5 -4.492188 1.5 -4.015625 C 1.5 -3.546875 1.578125 -3.109375 1.734375 -2.703125 C 1.898438 -2.296875 2.117188 -1.945312 2.390625 -1.65625 C 2.671875 -1.363281 3 -1.128906 3.375 -0.953125 C 3.757812 -0.785156 4.175781 -0.703125 4.625 -0.703125 Z M 4.625 -0.703125 "/></g></g></g><g fill="#000000" fill-opacity="1"><g transform="translate(241.093033, 230.726822)"><g><path d="M 3.546875 -8.046875 L 4.375 -8.046875 L 0.828125 1.4375 L 0 1.4375 Z M 3.546875 -8.046875 "/></g></g></g><g fill="#000000" fill-opacity="1"><g transform="translate(249.061176, 230.726822)"><g><path d="M 0.359375 -2.25 L 3.90625 -3.90625 L 0.359375 -5.546875 L 0.6875 -6.234375 L 4.890625 -4.28125 L 4.890625 -3.515625 L 0.6875 -1.546875 Z M 0.359375 -2.25 "/></g></g></g></svg>