<svg xmlns="http://www.w3.org/2000/svg" xmlns:xlink="http://www.w3.org/1999/xlink" width="314" zoomAndPan="magnify" viewBox="0 0 235.5 98.999996" height="132" preserveAspectRatio="xMidYMid meet" version="1.0"><defs><g/><clipPath id="238060d502"><path d="M 6 0.105469 L 56 0.105469 L 56 74 L 6 74 Z M 6 0.105469 " clip-rule="nonzero"/></clipPath><clipPath id="f634c24068"><path d="M 73.589844 17.027344 L 135.710938 17.027344 L 135.710938 80.640625 L 73.589844 80.640625 Z M 73.589844 17.027344 " clip-rule="nonzero"/></clipPath></defs><g clip-path="url(#238060d502)"><g fill="#f7f6fb" fill-opacity="1"><g transform="translate(1.090101, 71.915723)"><g><path d="M 48.625 -37.125 C 52.59375 -32.769531 54.578125 -27.445312 54.578125 -21.15625 C 54.578125 -14.875 52.59375 -9.570312 48.625 -5.25 C 44.65625 -0.925781 39.609375 1.234375 33.484375 1.234375 C 27.859375 1.234375 23.226562 -0.773438 19.59375 -4.796875 L 19.4375 -4.796875 L 19.4375 0 L 4.96875 0 L 4.96875 -71.109375 L 19.59375 -71.109375 L 19.59375 -38.359375 C 23.226562 -41.890625 27.859375 -43.65625 33.484375 -43.65625 C 39.609375 -43.65625 44.65625 -41.476562 48.625 -37.125 Z M 36.296875 -14.015625 C 38.117188 -15.859375 39.03125 -18.238281 39.03125 -21.15625 C 39.03125 -24.082031 38.078125 -26.484375 36.171875 -28.359375 C 34.273438 -30.234375 31.921875 -31.171875 29.109375 -31.171875 C 26.347656 -31.171875 24.015625 -30.234375 22.109375 -28.359375 C 20.210938 -26.484375 19.265625 -24.085938 19.265625 -21.171875 C 19.265625 -18.304688 20.1875 -15.9375 22.03125 -14.0625 C 23.882812 -12.1875 26.242188 -11.25 29.109375 -11.25 C 32.085938 -11.25 34.484375 -12.171875 36.296875 -14.015625 Z M 36.296875 -14.015625 "/></g></g></g></g><g fill="#f7f6fb" fill-opacity="1"><g transform="translate(51.107979, 71.915723)"><g><path d="M 7.859375 -5.25 C 3.890625 -9.570312 1.90625 -14.875 1.90625 -21.15625 C 1.90625 -27.445312 3.890625 -32.769531 7.859375 -37.125 C 11.828125 -41.476562 16.867188 -43.65625 22.984375 -43.65625 C 28.609375 -43.65625 33.238281 -41.890625 36.875 -38.359375 L 36.875 -42.421875 L 51.515625 -42.421875 L 51.515625 0 L 37.046875 0 L 37.046875 -4.796875 L 36.875 -4.796875 C 33.238281 -0.773438 28.609375 1.234375 22.984375 1.234375 C 16.867188 1.234375 11.828125 -0.925781 7.859375 -5.25 Z M 20.296875 -28.359375 C 18.398438 -26.484375 17.453125 -24.082031 17.453125 -21.15625 C 17.453125 -18.238281 18.359375 -15.859375 20.171875 -14.015625 C 21.992188 -12.171875 24.394531 -11.25 27.375 -11.25 C 30.238281 -11.25 32.59375 -12.1875 34.4375 -14.0625 C 36.28125 -15.9375 37.203125 -18.304688 37.203125 -21.171875 C 37.203125 -24.085938 36.25 -26.484375 34.34375 -28.359375 C 32.445312 -30.234375 30.125 -31.171875 27.375 -31.171875 C 24.5625 -31.171875 22.203125 -30.234375 20.296875 -28.359375 Z M 20.296875 -28.359375 "/></g></g></g><g fill="#f7f6fb" fill-opacity="1"><g transform="translate(101.125857, 71.915723)"><g><path d="M 4.96875 0 L 4.96875 -42.421875 L 19.59375 -42.421875 L 19.59375 -37.953125 L 19.765625 -37.953125 C 23.566406 -41.753906 27.617188 -43.65625 31.921875 -43.65625 C 34.015625 -43.65625 36.09375 -43.378906 38.15625 -42.828125 C 40.226562 -42.273438 42.210938 -41.421875 44.109375 -40.265625 C 46.015625 -39.109375 47.554688 -37.46875 48.734375 -35.34375 C 49.921875 -33.226562 50.515625 -30.765625 50.515625 -27.953125 L 50.515625 0 L 35.890625 0 L 35.890625 -23.984375 C 35.890625 -26.179688 35.1875 -28.109375 33.78125 -29.765625 C 32.375 -31.421875 30.539062 -32.25 28.28125 -32.25 C 26.070312 -32.25 24.070312 -31.394531 22.28125 -29.6875 C 20.488281 -27.976562 19.59375 -26.078125 19.59375 -23.984375 L 19.59375 0 Z M 4.96875 0 "/></g></g></g><g fill="#f7f6fb" fill-opacity="1"><g transform="translate(149.324856, 71.915723)"><g><path d="M 47.875 -19.1875 L 17.109375 -19.1875 C 17.109375 -16.207031 18.070312 -14 20 -12.5625 C 21.9375 -11.132812 24.035156 -10.421875 26.296875 -10.421875 C 28.660156 -10.421875 30.53125 -10.738281 31.90625 -11.375 C 33.289062 -12.007812 34.863281 -13.257812 36.625 -15.125 L 47.21875 -9.84375 C 42.800781 -2.457031 35.46875 1.234375 25.21875 1.234375 C 18.820312 1.234375 13.335938 -0.953125 8.765625 -5.328125 C 4.191406 -9.710938 1.90625 -14.988281 1.90625 -21.15625 C 1.90625 -27.332031 4.191406 -32.625 8.765625 -37.03125 C 13.335938 -41.445312 18.820312 -43.65625 25.21875 -43.65625 C 31.945312 -43.65625 37.414062 -41.710938 41.625 -37.828125 C 45.84375 -33.941406 47.953125 -28.390625 47.953125 -21.171875 C 47.953125 -20.171875 47.925781 -19.507812 47.875 -19.1875 Z M 17.53125 -27.28125 L 33.65625 -27.28125 C 33.320312 -29.488281 32.453125 -31.1875 31.046875 -32.375 C 29.640625 -33.5625 27.835938 -34.15625 25.640625 -34.15625 C 23.210938 -34.15625 21.28125 -33.519531 19.84375 -32.25 C 18.40625 -30.976562 17.632812 -29.320312 17.53125 -27.28125 Z M 17.53125 -27.28125 "/></g></g></g><g fill="#f7f6fb" fill-opacity="1"><g transform="translate(192.72865, 71.915723)"><g><path d="M 4.96875 0 L 4.96875 -42.421875 L 19.59375 -42.421875 L 19.59375 -36.296875 L 19.765625 -36.296875 C 19.867188 -36.515625 20.046875 -36.789062 20.296875 -37.125 C 20.546875 -37.457031 21.082031 -38.035156 21.90625 -38.859375 C 22.738281 -39.691406 23.625 -40.4375 24.5625 -41.09375 C 25.5 -41.757812 26.707031 -42.351562 28.1875 -42.875 C 29.675781 -43.394531 31.195312 -43.65625 32.75 -43.65625 C 34.34375 -43.65625 35.910156 -43.4375 37.453125 -43 C 38.992188 -42.5625 40.125 -42.117188 40.84375 -41.671875 L 42 -41.015625 L 35.890625 -28.609375 C 34.066406 -30.148438 31.53125 -30.921875 28.28125 -30.921875 C 26.519531 -30.921875 25.003906 -30.535156 23.734375 -29.765625 C 22.460938 -28.992188 21.566406 -28.054688 21.046875 -26.953125 C 20.523438 -25.847656 20.148438 -24.910156 19.921875 -24.140625 C 19.703125 -23.367188 19.59375 -22.765625 19.59375 -22.328125 L 19.59375 0 Z M 4.96875 0 "/></g></g></g><g clip-path="url(#f634c24068)"><path fill="#0e0f12" d="M 135.699219 48.425781 L 126.539062 48.425781 C 110.863281 45.03125 107.375 41.53125 103.980469 25.828125 L 103.980469 17.027344 L 102.824219 17.027344 L 102.824219 25.921875 C 99.4375 41.546875 95.933594 45.039062 80.285156 48.425781 L 73.601562 48.425781 L 73.601562 49.582031 L 80.285156 49.582031 C 95.933594 52.96875 99.4375 56.460938 102.824219 72.085938 L 102.824219 80.816406 L 103.980469 80.816406 L 103.980469 72.179688 C 107.375 56.476562 110.863281 52.976562 126.539062 49.582031 L 135.699219 49.582031 Z M 135.699219 48.425781 " fill-opacity="1" fill-rule="nonzero"/></g><g fill="#f7f6fb" fill-opacity="1"><g transform="translate(59.383868, 92.009725)"><g><path d="M 0.359375 -3.5 L 0.359375 -4.265625 L 4.5625 -6.21875 L 4.890625 -5.53125 L 1.359375 -3.890625 L 4.890625 -2.234375 L 4.5625 -1.546875 Z M 0.359375 -3.5 "/></g></g></g><g fill="#f7f6fb" fill-opacity="1"><g transform="translate(68.221113, 92.009725)"><g><path d="M 1.078125 -8.015625 L 3 -8.015625 C 3.394531 -8.015625 3.757812 -7.953125 4.09375 -7.828125 C 4.4375 -7.710938 4.726562 -7.546875 4.96875 -7.328125 C 5.21875 -7.117188 5.410156 -6.863281 5.546875 -6.5625 C 5.679688 -6.269531 5.75 -5.945312 5.75 -5.59375 C 5.75 -5.25 5.679688 -4.925781 5.546875 -4.625 C 5.410156 -4.332031 5.21875 -4.078125 4.96875 -3.859375 C 4.726562 -3.648438 4.4375 -3.484375 4.09375 -3.359375 C 3.757812 -3.242188 3.394531 -3.1875 3 -3.1875 L 1.921875 -3.1875 L 1.921875 0 L 1.078125 0 Z M 3 -3.96875 C 3.570312 -3.96875 4.03125 -4.113281 4.375 -4.40625 C 4.726562 -4.707031 4.90625 -5.109375 4.90625 -5.609375 C 4.90625 -6.109375 4.726562 -6.503906 4.375 -6.796875 C 4.03125 -7.085938 3.570312 -7.234375 3 -7.234375 L 1.921875 -7.234375 L 1.921875 -3.96875 Z M 3 -3.96875 "/></g></g></g><g fill="#f7f6fb" fill-opacity="1"><g transform="translate(78.100156, 92.009725)"><g><path d="M 4.609375 0.125 C 4.054688 0.125 3.535156 0.015625 3.046875 -0.203125 C 2.566406 -0.421875 2.144531 -0.71875 1.78125 -1.09375 C 1.414062 -1.46875 1.125 -1.898438 0.90625 -2.390625 C 0.695312 -2.890625 0.59375 -3.429688 0.59375 -4.015625 C 0.59375 -4.578125 0.695312 -5.109375 0.90625 -5.609375 C 1.125 -6.117188 1.414062 -6.5625 1.78125 -6.9375 C 2.144531 -7.3125 2.566406 -7.601562 3.046875 -7.8125 C 3.535156 -8.03125 4.054688 -8.140625 4.609375 -8.140625 C 5.160156 -8.140625 5.675781 -8.03125 6.15625 -7.8125 C 6.644531 -7.601562 7.070312 -7.3125 7.4375 -6.9375 C 7.800781 -6.5625 8.085938 -6.125 8.296875 -5.625 C 8.515625 -5.125 8.625 -4.585938 8.625 -4.015625 C 8.625 -3.441406 8.515625 -2.90625 8.296875 -2.40625 C 8.085938 -1.90625 7.800781 -1.46875 7.4375 -1.09375 C 7.070312 -0.71875 6.644531 -0.421875 6.15625 -0.203125 C 5.675781 0.015625 5.160156 0.125 4.609375 0.125 Z M 4.609375 -0.703125 C 5.046875 -0.703125 5.457031 -0.785156 5.84375 -0.953125 C 6.226562 -1.117188 6.554688 -1.347656 6.828125 -1.640625 C 7.097656 -1.941406 7.3125 -2.289062 7.46875 -2.6875 C 7.632812 -3.09375 7.71875 -3.535156 7.71875 -4.015625 C 7.71875 -4.484375 7.632812 -4.914062 7.46875 -5.3125 C 7.3125 -5.71875 7.097656 -6.066406 6.828125 -6.359375 C 6.554688 -6.660156 6.226562 -6.894531 5.84375 -7.0625 C 5.457031 -7.226562 5.046875 -7.3125 4.609375 -7.3125 C 4.160156 -7.3125 3.742188 -7.226562 3.359375 -7.0625 C 2.984375 -6.894531 2.65625 -6.660156 2.375 -6.359375 C 2.101562 -6.066406 1.890625 -5.71875 1.734375 -5.3125 C 1.578125 -4.914062 1.5 -4.484375 1.5 -4.015625 C 1.5 -3.535156 1.578125 -3.09375 1.734375 -2.6875 C 1.890625 -2.289062 2.101562 -1.941406 2.375 -1.640625 C 2.65625 -1.347656 2.984375 -1.117188 3.359375 -0.953125 C 3.742188 -0.785156 4.160156 -0.703125 4.609375 -0.703125 Z M 4.609375 -0.703125 "/></g></g></g><g fill="#f7f6fb" fill-opacity="1"><g transform="translate(90.91297, 92.009725)"><g><path d="M 1.078125 -8.015625 L 3 -8.015625 C 3.394531 -8.015625 3.757812 -7.957031 4.09375 -7.84375 C 4.4375 -7.726562 4.726562 -7.5625 4.96875 -7.34375 C 5.21875 -7.132812 5.410156 -6.882812 5.546875 -6.59375 C 5.679688 -6.3125 5.75 -6 5.75 -5.65625 C 5.75 -5.382812 5.703125 -5.125 5.609375 -4.875 C 5.523438 -4.632812 5.398438 -4.414062 5.234375 -4.21875 C 5.078125 -4.019531 4.882812 -3.847656 4.65625 -3.703125 C 4.4375 -3.566406 4.195312 -3.46875 3.9375 -3.40625 L 6.21875 0 L 5.21875 0 L 3 -3.296875 L 1.921875 -3.296875 L 1.921875 0 L 1.078125 0 Z M 3 -4.078125 C 3.570312 -4.078125 4.03125 -4.21875 4.375 -4.5 C 4.726562 -4.789062 4.90625 -5.179688 4.90625 -5.671875 C 4.90625 -6.148438 4.726562 -6.53125 4.375 -6.8125 C 4.03125 -7.09375 3.570312 -7.234375 3 -7.234375 L 1.921875 -7.234375 L 1.921875 -4.078125 Z M 3 -4.078125 "/></g></g></g><g fill="#f7f6fb" fill-opacity="1"><g transform="translate(101.211121, 92.009725)"><g><path d="M 3 -7.234375 L 0.359375 -7.234375 L 0.359375 -8.015625 L 6.46875 -8.015625 L 6.46875 -7.234375 L 3.828125 -7.234375 L 3.828125 0 L 3 0 Z M 3 -7.234375 "/></g></g></g><g fill="#f7f6fb" fill-opacity="1"><g transform="translate(111.629021, 92.009725)"><g><path d="M 1.078125 -8.015625 L 5.203125 -8.015625 L 5.203125 -7.234375 L 1.921875 -7.234375 L 1.921875 -4.3125 L 4.421875 -4.3125 L 4.421875 -3.53125 L 1.921875 -3.53125 L 1.921875 0 L 1.078125 0 Z M 1.078125 -8.015625 "/></g></g></g><g fill="#f7f6fb" fill-opacity="1"><g transform="translate(120.909335, 92.009725)"><g><path d="M 4.609375 0.125 C 4.054688 0.125 3.535156 0.015625 3.046875 -0.203125 C 2.566406 -0.421875 2.144531 -0.71875 1.78125 -1.09375 C 1.414062 -1.46875 1.125 -1.898438 0.90625 -2.390625 C 0.695312 -2.890625 0.59375 -3.429688 0.59375 -4.015625 C 0.59375 -4.578125 0.695312 -5.109375 0.90625 -5.609375 C 1.125 -6.117188 1.414062 -6.5625 1.78125 -6.9375 C 2.144531 -7.3125 2.566406 -7.601562 3.046875 -7.8125 C 3.535156 -8.03125 4.054688 -8.140625 4.609375 -8.140625 C 5.160156 -8.140625 5.675781 -8.03125 6.15625 -7.8125 C 6.644531 -7.601562 7.070312 -7.3125 7.4375 -6.9375 C 7.800781 -6.5625 8.085938 -6.125 8.296875 -5.625 C 8.515625 -5.125 8.625 -4.585938 8.625 -4.015625 C 8.625 -3.441406 8.515625 -2.90625 8.296875 -2.40625 C 8.085938 -1.90625 7.800781 -1.46875 7.4375 -1.09375 C 7.070312 -0.71875 6.644531 -0.421875 6.15625 -0.203125 C 5.675781 0.015625 5.160156 0.125 4.609375 0.125 Z M 4.609375 -0.703125 C 5.046875 -0.703125 5.457031 -0.785156 5.84375 -0.953125 C 6.226562 -1.117188 6.554688 -1.347656 6.828125 -1.640625 C 7.097656 -1.941406 7.3125 -2.289062 7.46875 -2.6875 C 7.632812 -3.09375 7.71875 -3.535156 7.71875 -4.015625 C 7.71875 -4.484375 7.632812 -4.914062 7.46875 -5.3125 C 7.3125 -5.71875 7.097656 -6.066406 6.828125 -6.359375 C 6.554688 -6.660156 6.226562 -6.894531 5.84375 -7.0625 C 5.457031 -7.226562 5.046875 -7.3125 4.609375 -7.3125 C 4.160156 -7.3125 3.742188 -7.226562 3.359375 -7.0625 C 2.984375 -6.894531 2.65625 -6.660156 2.375 -6.359375 C 2.101562 -6.066406 1.890625 -5.71875 1.734375 -5.3125 C 1.578125 -4.914062 1.5 -4.484375 1.5 -4.015625 C 1.5 -3.535156 1.578125 -3.09375 1.734375 -2.6875 C 1.890625 -2.289062 2.101562 -1.941406 2.375 -1.640625 C 2.65625 -1.347656 2.984375 -1.117188 3.359375 -0.953125 C 3.742188 -0.785156 4.160156 -0.703125 4.609375 -0.703125 Z M 4.609375 -0.703125 "/></g></g></g><g fill="#f7f6fb" fill-opacity="1"><g transform="translate(133.722151, 92.009725)"><g><path d="M 1.078125 -8.015625 L 1.921875 -8.015625 L 1.921875 -0.78125 L 5.140625 -0.78125 L 5.140625 0 L 1.078125 0 Z M 1.078125 -8.015625 "/></g></g></g><g fill="#f7f6fb" fill-opacity="1"><g transform="translate(143.002466, 92.009725)"><g><path d="M 1.078125 -8.015625 L 1.921875 -8.015625 L 1.921875 0 L 1.078125 0 Z M 1.078125 -8.015625 "/></g></g></g><g fill="#f7f6fb" fill-opacity="1"><g transform="translate(149.588496, 92.009725)"><g><path d="M 4.609375 0.125 C 4.054688 0.125 3.535156 0.015625 3.046875 -0.203125 C 2.566406 -0.421875 2.144531 -0.71875 1.78125 -1.09375 C 1.414062 -1.46875 1.125 -1.898438 0.90625 -2.390625 C 0.695312 -2.890625 0.59375 -3.429688 0.59375 -4.015625 C 0.59375 -4.578125 0.695312 -5.109375 0.90625 -5.609375 C 1.125 -6.117188 1.414062 -6.5625 1.78125 -6.9375 C 2.144531 -7.3125 2.566406 -7.601562 3.046875 -7.8125 C 3.535156 -8.03125 4.054688 -8.140625 4.609375 -8.140625 C 5.160156 -8.140625 5.675781 -8.03125 6.15625 -7.8125 C 6.644531 -7.601562 7.070312 -7.3125 7.4375 -6.9375 C 7.800781 -6.5625 8.085938 -6.125 8.296875 -5.625 C 8.515625 -5.125 8.625 -4.585938 8.625 -4.015625 C 8.625 -3.441406 8.515625 -2.90625 8.296875 -2.40625 C 8.085938 -1.90625 7.800781 -1.46875 7.4375 -1.09375 C 7.070312 -0.71875 6.644531 -0.421875 6.15625 -0.203125 C 5.675781 0.015625 5.160156 0.125 4.609375 0.125 Z M 4.609375 -0.703125 C 5.046875 -0.703125 5.457031 -0.785156 5.84375 -0.953125 C 6.226562 -1.117188 6.554688 -1.347656 6.828125 -1.640625 C 7.097656 -1.941406 7.3125 -2.289062 7.46875 -2.6875 C 7.632812 -3.09375 7.71875 -3.535156 7.71875 -4.015625 C 7.71875 -4.484375 7.632812 -4.914062 7.46875 -5.3125 C 7.3125 -5.71875 7.097656 -6.066406 6.828125 -6.359375 C 6.554688 -6.660156 6.226562 -6.894531 5.84375 -7.0625 C 5.457031 -7.226562 5.046875 -7.3125 4.609375 -7.3125 C 4.160156 -7.3125 3.742188 -7.226562 3.359375 -7.0625 C 2.984375 -6.894531 2.65625 -6.660156 2.375 -6.359375 C 2.101562 -6.066406 1.890625 -5.71875 1.734375 -5.3125 C 1.578125 -4.914062 1.5 -4.484375 1.5 -4.015625 C 1.5 -3.535156 1.578125 -3.09375 1.734375 -2.6875 C 1.890625 -2.289062 2.101562 -1.941406 2.375 -1.640625 C 2.65625 -1.347656 2.984375 -1.117188 3.359375 -0.953125 C 3.742188 -0.785156 4.160156 -0.703125 4.609375 -0.703125 Z M 4.609375 -0.703125 "/></g></g></g><g fill="#f7f6fb" fill-opacity="1"><g transform="translate(162.401311, 92.009725)"><g><path d="M 3.53125 -8.015625 L 4.359375 -8.015625 L 0.828125 1.4375 L 0 1.4375 Z M 3.53125 -8.015625 "/></g></g></g><g fill="#f7f6fb" fill-opacity="1"><g transform="translate(170.352436, 92.009725)"><g><path d="M 0.359375 -2.234375 L 3.890625 -3.890625 L 0.359375 -5.53125 L 0.6875 -6.21875 L 4.890625 -4.265625 L 4.890625 -3.5 L 0.6875 -1.546875 Z M 0.359375 -2.234375 "/></g></g></g></svg>