<svg version="1.1" viewBox="0.0 0.0 2880.0 2880.0" fill="none" stroke="none" stroke-linecap="square" stroke-miterlimit="10" xmlns:xlink="http://www.w3.org/1999/xlink" xmlns="http://www.w3.org/2000/svg"><clipPath id="p.0"><path d="m0 0l2880.0 0l0 2880.0l-2880.0 0l0 -2880.0z" clip-rule="nonzero"/></clipPath><g clip-path="url(#p.0)"><path fill="#000000" fill-opacity="0.0" d="m0 0l2880.0 0l0 2880.0l-2880.0 0z" fill-rule="evenodd"/><path fill="#007ec4" d="m1439.9987 541.2504l898.7494 898.7492l-898.7494 898.7494l-898.7492 -898.7494z" fill-rule="evenodd"/><path fill="#3397cf" d="m1439.9987 455.71622l984.28357 984.28345l-85.53418 0l-898.7494 -898.7492z" fill-rule="evenodd"/><path fill="#00649c" d="m455.71524 1439.9996l85.53421 0l898.7492 898.7494l0 85.53418z" fill-rule="evenodd"/><path fill="#66b1db" d="m1439.9987 455.71622l0 85.53421l-898.7492 898.7492l-85.53421 0z" fill-rule="evenodd"/><path fill="#004b75" d="m2424.2822 1439.9996l-984.28357 984.28357l0 -85.53418l898.7494 -898.7494z" fill-rule="evenodd"/><path fill="#000000" fill-opacity="0.0" d="m1439.9987 455.71622l984.28357 984.28345l-984.28357 984.28357l-984.28345 -984.28357zm0 85.53421l898.7494 898.7492l-898.7494 898.7494l-898.7492 -898.7494zm0 -85.53421l0 85.53421m-984.28345 898.7492l85.53421 0m1883.0327 0l-85.53418 0m-898.7494 984.28357l0 -85.53418" fill-rule="evenodd"/><path fill="#ffffff" d="m2054.3938 1440.0l0 0c0 339.3203 -275.0735 614.3938 -614.3938 614.3938l0 0c-162.94739 0 -319.22083 -64.73071 -434.44196 -179.9519c-115.22119 -115.22107 -179.95172 -271.4945 -179.95172 -434.4419l0 0c0 -339.3203 275.07336 -614.3937 614.3937 -614.3937l0 0c339.3203 0 614.3938 275.07336 614.3938 614.3937z" fill-rule="evenodd"/><path stroke="#d9d9d9" stroke-width="16.0" stroke-linejoin="round" stroke-linecap="butt" d="m2054.3938 1440.0l0 0c0 339.3203 -275.0735 614.3938 -614.3938 614.3938l0 0c-162.94739 0 -319.22083 -64.73071 -434.44196 -179.9519c-115.22119 -115.22107 -179.95172 -271.4945 -179.95172 -434.4419l0 0c0 -339.3203 275.07336 -614.3937 614.3937 -614.3937l0 0c339.3203 0 614.3938 275.07336 614.3938 614.3937z" fill-rule="evenodd"/><defs><radialGradient id="p.1" gradientUnits="userSpaceOnUse" gradientTransform="matrix(-27.94004143437033 0.0 0.0 -27.94004143437033 0.0 0.0)" spreadMethod="pad" cx="-51.538935737890135" cy="-51.606337287890014" fx="-51.538935737890135" fy="-51.606337287890014" r="27.940040588378906"><stop offset="0.0" stop-color="#007ec4"/><stop offset="0.5" stop-color="#007ec4"/><stop offset="1.0" stop-color="#005889"/></radialGradient></defs><path fill="url(#p.1)" d="m1992.0 1441.8832l0 0c0 304.8612 -247.1388 552.0 -552.0 552.0l0 0c-146.39954 0 -286.80286 -58.156982 -390.323 -161.677c-103.52002 -103.52014 -161.677 -243.92346 -161.677 -390.323l0 0c0 -304.8612 247.1388 -552.0 552.0 -552.0l0 0c304.8612 0 552.0 247.1388 552.0 552.0z" fill-rule="evenodd"/><path stroke="#cccccc" stroke-width="16.0" stroke-linejoin="round" stroke-linecap="butt" d="m1992.0 1441.8832l0 0c0 304.8612 -247.1388 552.0 -552.0 552.0l0 0c-146.39954 0 -286.80286 -58.156982 -390.323 -161.677c-103.52002 -103.52014 -161.677 -243.92346 -161.677 -390.323l0 0c0 -304.8612 247.1388 -552.0 552.0 -552.0l0 0c304.8612 0 552.0 247.1388 552.0 552.0z" fill-rule="evenodd"/><path fill="#ffffff" d="m1992.0 1441.8833l-343.10168 29.36731l0 -58.73462zm-161.71558 -390.33557l-221.81458 263.39673l-41.531006 -41.531128zm-390.28442 -161.66449l29.36731 343.10162l-58.73462 0zm-390.33557 161.66449l263.39673 221.8656l-41.531006 41.531128zm-161.66443 390.33557l343.10168 -29.36731l0 58.73462zm161.66443 390.28442l221.86572 -263.3457l41.531006 41.531128zm390.33557 161.71558l-29.36731 -343.10168l58.73462 0zm390.28442 -161.71558l-263.34558 -221.81458l41.531006 -41.531128zm-492.60315 -390.28442c0 -56.509155 45.809692 -102.318726 102.318726 -102.318726c56.509033 0 102.318726 45.80957 102.318726 102.318726c0 56.509033 -45.809692 102.318726 -102.318726 102.318726c-56.509033 0 -102.318726 -45.809692 -102.318726 -102.318726z" fill-rule="evenodd"/><path fill="#ffffff" d="m912.0 817.88586l-67.84253 1.7221069l0 -3.4442139zm-28.12445 -67.8844l-46.749084 49.19336l-2.4354248 -2.4354248zm-67.87555 -28.1156l1.7221069 67.84253l-3.4442139 0zm-67.88446 28.1156l49.19342 46.757935l-2.4354248 2.4354248zm-28.11554 67.8844l67.84253 -1.7221069l0 3.4442139zm28.11554 67.87561l46.757996 -49.18451l2.4354248 2.4353638zm67.88446 28.12439l-1.7221069 -67.84247l3.4442139 0zm67.87555 -28.12439l-49.18451 -46.749146l2.4354248 -2.4353638zm-73.87555 -67.87561c0 -3.3136597 2.6862793 -6.0 6.0 -6.0c3.3137207 0 6.0 2.6863403 6.0 6.0c0 3.3137207 -2.6862793 6.0 -6.0 6.0c-3.3137207 0 -6.0 -2.6862793 -6.0 -6.0z" fill-rule="evenodd"/></g></svg>