<svg width="461" height="154" viewBox="0 0 461 154" fill="none" xmlns="http://www.w3.org/2000/svg">
<g filter="url(#filter0_d_1_3)">
<path d="M54 130.2C59.7333 130.2 64.6 129.267 68.6 127.4C72.7333 125.4 76.0667 122.8 78.6 119.6C81.2667 116.267 83.2 112.533 84.4 108.4C85.7333 104.133 86.4 99.6667 86.4 95V92.6H103.2V95C103.2 102.067 102.133 108.733 100 115C97.8667 121.133 94.7333 126.533 90.6 131.2C86.4667 135.733 81.3333 139.333 75.2 142C69.0667 144.533 62 145.8 54 145.8C38.5333 145.8 26.4667 140.933 17.8 131.2C9.13333 121.467 4.8 107.267 4.8 88.6V57.4C4.8 39.2667 9.13333 25.2 17.8 15.2C26.4667 5.19999 38.5333 0.199991 54 0.199991C62 0.199991 69.0667 1.53333 75.2 4.2C81.3333 6.73333 86.4667 10.3333 90.6 15C94.7333 19.5333 97.8667 24.9333 100 31.2C102.133 37.3333 103.2 43.9333 103.2 51V53.4H86.4V51C86.2667 46.4667 85.5333 42.0667 84.2 37.8C83 33.5333 81.0667 29.8 78.4 26.6C75.8667 23.2667 72.6 20.6667 68.6 18.8C64.6 16.8 59.7333 15.8 54 15.8C43.2 15.8 35.0667 19.7333 29.6 27.6C24.2667 35.4667 21.6 45.8 21.6 58.6V87.4C21.6 101.133 24.2667 111.733 29.6 119.2C35.0667 126.533 43.2 130.2 54 130.2ZM209.461 143H192.661V96.2C192.661 92.7333 191.861 90.0667 190.261 88.2C188.661 86.3333 185.861 85.4 181.861 85.4H138.261V143H121.461V2.99999H171.461C178.661 2.99999 184.928 4.06666 190.261 6.2C195.594 8.2 199.994 10.9333 203.461 14.4C207.061 17.8667 209.728 21.9333 211.461 26.6C213.328 31.1333 214.261 35.9333 214.261 41V47C214.261 52.2 212.794 57.4 209.861 62.6C207.061 67.8 202.661 71.8 196.661 74.6V77C200.661 77.6667 203.794 79.2667 206.061 81.8C208.328 84.3333 209.461 87.9333 209.461 92.6V143ZM138.261 69.8H169.461C178.928 69.8 185.928 67.8 190.461 63.8C195.128 59.6667 197.461 53.6667 197.461 45.8V42.2C197.461 35.1333 195.128 29.4667 190.461 25.2C185.928 20.8 178.928 18.6 169.461 18.6H138.261V69.8ZM246.922 2.99999V95.8C246.922 107.133 249.522 115.733 254.722 121.6C260.055 127.333 267.855 130.2 278.122 130.2C288.389 130.2 296.122 127.333 301.322 121.6C306.655 115.733 309.322 107.133 309.322 95.8V2.99999H326.122V95.8C326.122 112.067 321.855 124.467 313.322 133C304.789 141.533 293.055 145.8 278.122 145.8C263.189 145.8 251.455 141.533 242.922 133C234.389 124.467 230.122 112.067 230.122 95.8V2.99999H246.922ZM349.783 2.99999H366.583L372.583 135.8H374.983L437.383 2.99999H456.383L389.383 143H357.183L349.783 2.99999Z" fill="white"/>
</g>
<defs>
<filter id="filter0_d_1_3" x="0.800049" y="0.200012" width="459.583" height="153.6" filterUnits="userSpaceOnUse" color-interpolation-filters="sRGB">
<feFlood flood-opacity="0" result="BackgroundImageFix"/>
<feColorMatrix in="SourceAlpha" type="matrix" values="0 0 0 0 0 0 0 0 0 0 0 0 0 0 0 0 0 0 127 0" result="hardAlpha"/>
<feOffset dy="4"/>
<feGaussianBlur stdDeviation="2"/>
<feComposite in2="hardAlpha" operator="out"/>
<feColorMatrix type="matrix" values="0 0 0 0 0 0 0 0 0 0 0 0 0 0 0 0 0 0 0.25 0"/>
<feBlend mode="normal" in2="BackgroundImageFix" result="effect1_dropShadow_1_3"/>
<feBlend mode="normal" in="SourceGraphic" in2="effect1_dropShadow_1_3" result="shape"/>
</filter>
</defs>
</svg>
