<svg width="2001" height="1701" viewBox="0 0 2001 1701" fill="none" xmlns="http://www.w3.org/2000/svg">
<rect width="2000" height="1700" transform="translate(0.0825195 0.47168)" fill="white"/>
<path d="M528.417 505.493C515.403 505.493 504.849 516.048 504.849 529.061V564.874C504.849 577.888 515.403 588.442 528.417 588.442H898.126C911.14 588.442 921.694 577.888 921.694 564.874V529.061C921.694 516.048 911.14 505.493 898.126 505.493H528.417ZM898.075 592.797H528.366C512.995 592.797 500.443 580.296 500.443 564.925V529.112C500.443 513.742 512.944 501.189 528.366 501.189H898.075C913.445 501.189 925.947 513.691 925.947 529.112V564.925C925.947 580.296 913.445 592.797 898.075 592.797Z" fill="#4C83C3"/>
<path d="M535.333 560.931H540.149V532.906H535.333V560.931ZM539.278 527.833C539.791 527.68 540.201 527.475 540.559 527.219C540.918 526.962 541.174 526.655 541.379 526.296C541.584 525.938 541.686 525.579 541.686 525.118C541.686 524.657 541.584 524.298 541.379 523.888C541.174 523.478 540.867 523.171 540.508 522.864C540.149 522.607 539.74 522.351 539.227 522.197C538.766 522.044 538.202 521.941 537.639 521.941C537.075 521.941 536.563 521.993 536.051 522.197C535.538 522.351 535.128 522.556 534.77 522.864C534.411 523.12 534.104 523.478 533.899 523.888C533.694 524.298 533.591 524.657 533.591 525.118C533.591 525.579 533.694 525.938 533.899 526.296C534.104 526.655 534.36 526.962 534.718 527.219C535.077 527.475 535.487 527.68 535.999 527.833C536.512 527.987 537.024 528.038 537.588 528.038C538.151 528.038 538.715 527.987 539.176 527.833M535.333 560.931H540.149V532.906H535.333V560.931ZM565.869 534.289C563.871 532.752 561.309 531.983 558.133 531.983C554.444 531.983 551.37 533.367 548.962 536.133C546.554 538.9 545.375 542.743 545.375 547.661C545.375 551.709 546.451 555.039 548.654 557.754C550.857 560.419 553.778 561.802 557.467 561.802C560.746 561.802 563.461 560.931 565.562 559.189C567.662 557.447 568.995 554.732 569.507 550.991H564.896C564.435 553.092 563.666 554.732 562.539 555.961C561.412 557.14 559.823 557.754 557.876 557.754C555.315 557.754 553.419 556.781 552.241 554.834C551.062 552.887 550.448 550.53 550.448 547.712C550.448 544.895 550.857 542.538 551.728 540.642C553.009 537.722 555.161 536.236 558.184 536.236C560.387 536.236 561.975 536.799 563 537.978C563.973 539.105 564.64 540.591 564.896 542.333H569.507C569.097 538.593 567.919 535.928 565.92 534.391M591.538 554.988C590.103 556.832 588.259 557.754 586.056 557.754C582.777 557.754 580.522 556.32 579.344 553.399C578.678 551.862 578.37 550.018 578.37 547.866C578.37 545.151 578.678 542.948 579.344 541.206C580.573 537.927 582.777 536.287 586.056 536.287C589.335 536.287 591.538 537.824 592.767 540.949C593.433 542.538 593.741 544.485 593.741 546.739C593.741 550.428 592.972 553.194 591.538 555.039M573.811 572.151H578.575V557.754C579.6 559.035 580.522 559.906 581.393 560.47C582.828 561.392 584.621 561.853 586.722 561.853C589.386 561.853 591.794 561.033 593.792 559.343C597.02 556.73 598.608 552.324 598.608 546.175C598.608 541.615 597.481 538.131 595.278 535.672C593.075 533.213 590.359 531.983 587.132 531.983C584.98 531.983 583.084 532.496 581.496 533.572C580.369 534.289 579.344 535.262 578.422 536.543V532.803H573.811V572.049V572.151ZM622.688 534.289C620.69 532.752 618.129 531.983 614.952 531.983C611.212 531.983 608.189 533.367 605.781 536.133C603.373 538.9 602.195 542.743 602.195 547.661C602.195 551.709 603.27 555.039 605.474 557.754C607.677 560.419 610.597 561.802 614.286 561.802C617.565 561.802 620.229 560.931 622.381 559.189C624.482 557.447 625.814 554.732 626.326 550.991H621.715C621.254 553.092 620.485 554.732 619.358 555.961C618.231 557.14 616.643 557.754 614.696 557.754C612.134 557.754 610.238 556.781 609.06 554.834C607.882 552.887 607.267 550.53 607.267 547.712C607.267 544.895 607.677 542.538 608.548 540.642C609.829 537.722 611.98 536.236 615.003 536.236C617.206 536.236 618.795 536.799 619.819 537.978C620.793 539.105 621.459 540.591 621.715 542.333H626.326C625.916 538.593 624.738 535.928 622.74 534.391M636.522 560.88C637.034 560.726 637.444 560.521 637.803 560.265C638.161 560.009 638.417 559.701 638.622 559.343C638.827 558.984 638.93 558.625 638.93 558.164C638.93 557.703 638.827 557.344 638.622 556.935C638.417 556.525 638.11 556.217 637.751 555.91C637.393 555.654 636.983 555.398 636.47 555.244C635.958 555.09 635.497 554.988 634.882 554.988C634.267 554.988 633.806 555.039 633.294 555.244C632.782 555.398 632.372 555.603 632.013 555.91C631.654 556.217 631.347 556.525 631.142 556.935C630.937 557.344 630.835 557.703 630.835 558.164C630.835 558.625 630.937 558.984 631.142 559.343C631.347 559.701 631.603 560.009 631.962 560.265C632.321 560.521 632.73 560.726 633.243 560.88C633.755 561.033 634.267 561.085 634.831 561.085C635.395 561.085 635.958 561.033 636.419 560.88M647.179 528.499V532.906H643.285V536.646H647.179V560.931H651.841V536.646H656.555V532.906H651.892C651.892 529.883 652.046 527.987 652.302 527.219C652.558 526.45 653.429 526.091 654.864 526.091C655.069 526.091 655.274 526.091 655.479 526.091C655.684 526.091 656.042 526.091 656.555 526.143V521.839C656.145 521.839 655.786 521.788 655.479 521.788C655.171 521.788 654.864 521.788 654.556 521.788C651.38 521.788 649.279 522.607 648.152 524.196C647.537 525.118 647.179 526.552 647.127 528.499M678.534 554.322C677.356 556.678 675.204 557.857 672.079 557.857C669.209 557.857 667.109 556.832 665.828 554.885C664.496 552.887 663.881 550.377 663.881 547.405C663.881 544.433 664.547 541.615 665.828 539.412C667.16 537.209 669.261 536.082 672.181 536.082C675.46 536.082 677.714 537.363 679.098 539.976C679.918 541.615 680.379 543.767 680.379 546.38C680.379 549.301 679.815 551.914 678.637 554.322M681.455 535.621C678.944 533.213 675.87 531.983 672.284 531.983C668.236 531.983 665.008 533.367 662.6 536.185C660.192 539.003 659.014 542.743 659.014 547.456C659.014 551.862 660.141 555.398 662.446 558.011C664.701 560.624 667.775 561.956 671.669 561.956C676.331 561.956 679.713 560.47 681.967 557.498C684.17 554.527 685.297 550.786 685.297 546.278C685.297 541.769 684.016 538.029 681.506 535.621M690.779 532.803V551.914C690.779 554.322 691.189 556.217 691.958 557.652C693.392 560.316 696.159 561.648 700.155 561.648C702.717 561.648 704.92 560.931 706.713 559.445C707.636 558.728 708.404 557.806 709.019 556.73V560.88H713.425V532.752H708.711V546.585C708.711 549.352 708.404 551.504 707.738 553.041C706.56 555.961 704.305 557.447 701.026 557.447C698.721 557.447 697.132 556.627 696.313 554.936C695.852 554.014 695.647 552.836 695.647 551.401V532.752H690.831L690.779 532.803ZM720.803 560.931H725.568V546.175C725.568 544.331 725.67 542.948 725.926 541.923C726.182 540.949 726.695 539.976 727.463 539.054C728.437 537.875 729.564 537.107 730.896 536.748C731.613 536.543 732.535 536.441 733.663 536.441C735.866 536.441 737.403 537.312 738.223 539.054C738.735 540.13 738.991 541.513 738.991 543.204V560.931H743.807V542.896C743.807 540.078 743.449 537.875 742.68 536.338C741.297 533.572 738.581 532.137 734.585 532.137C732.741 532.137 731.101 532.496 729.615 533.213C728.129 533.93 726.695 535.109 725.363 536.748V532.752H720.854V560.88L720.803 560.931ZM755.642 554.783C754.362 552.733 753.747 550.223 753.747 547.2C753.747 543.665 754.464 541.001 755.95 539.156C757.436 537.363 759.383 536.441 761.739 536.441C763.891 536.441 765.684 537.312 767.119 539.002C768.553 540.693 769.271 543.357 769.271 546.893C769.271 550.428 768.554 553.143 767.17 554.988C765.736 556.883 763.942 557.806 761.739 557.806C758.921 557.806 756.872 556.781 755.591 554.732M760.868 532.291C756.975 532.291 754.003 533.777 751.902 536.799C749.802 539.822 748.726 543.357 748.726 547.456C748.726 551.862 749.853 555.346 752.158 558.011C754.464 560.624 757.179 561.956 760.305 561.956C762.252 561.956 763.994 561.546 765.479 560.777C766.965 560.009 768.297 558.779 769.425 557.037V560.931H773.677V522.197H769.117V536.441C768.041 535.109 767.068 534.186 766.248 533.674C764.813 532.752 763.02 532.291 760.817 532.291M785.82 556.678C784.795 555.91 784.334 554.834 784.334 553.451C784.334 551.657 785.051 550.325 786.486 549.506C787.357 548.993 788.638 548.635 790.328 548.43L793.197 548.071C794.068 547.969 794.991 547.815 795.862 547.559C796.784 547.303 797.501 546.995 798.116 546.636V550.428C798.116 553.348 796.784 555.449 794.171 556.73C792.634 557.498 790.994 557.857 789.355 557.857C788.023 557.857 786.793 557.447 785.82 556.678ZM788.228 544.843C785.564 545.202 783.463 546.073 781.823 547.507C780.184 548.942 779.364 550.991 779.364 553.553C779.364 555.91 780.184 557.908 781.823 559.496C783.463 561.085 785.615 561.853 788.228 561.853C790.38 561.853 792.378 561.392 794.222 560.47C796.015 559.548 797.399 558.42 798.372 557.191C798.526 558.318 798.782 559.189 799.192 559.804C799.909 560.931 801.088 561.546 802.727 561.546C803.393 561.546 803.905 561.546 804.315 561.494C804.725 561.494 805.289 561.29 806.006 561.085V557.601C805.699 557.601 805.443 557.703 805.186 557.703C804.93 557.703 804.674 557.703 804.469 557.703C803.803 557.703 803.393 557.549 803.188 557.242C802.983 556.935 802.881 556.525 802.881 556.064V539.874C802.881 537.209 801.856 535.262 799.807 533.981C797.706 532.701 795.042 532.086 791.712 532.086C788.842 532.086 786.332 532.752 784.18 534.135C782.028 535.467 780.901 537.875 780.799 541.359H785.205C785.359 539.925 785.717 538.798 786.332 538.08C787.357 536.748 789.099 536.082 791.609 536.082C793.761 536.082 795.401 536.441 796.528 537.158C797.655 537.875 798.218 539.054 798.218 540.642C798.218 541.411 798.116 542.025 797.911 542.435C797.552 543.204 796.835 543.665 795.708 543.819L788.176 544.741L788.228 544.843ZM811.539 532.803H807.748V536.646H811.539V555.295C811.539 557.088 811.949 558.574 812.718 559.701C813.486 560.828 815.023 561.392 817.175 561.392C817.893 561.392 818.507 561.392 819.071 561.29C819.635 561.238 820.198 561.085 820.762 560.931V557.191C820.403 557.191 820.096 557.242 819.839 557.242C819.583 557.242 819.327 557.242 819.071 557.242C818.2 557.242 817.585 557.14 817.227 556.986C816.56 556.627 816.202 556.012 816.202 554.988V536.594H820.71V532.752H816.202V524.862H811.437V532.752L811.539 532.803ZM825.578 560.931H830.394V532.906H825.578V560.931ZM829.523 527.833C830.035 527.68 830.445 527.475 830.804 527.219C831.162 526.962 831.419 526.655 831.623 526.296C831.828 525.938 831.931 525.579 831.931 525.118C831.931 524.657 831.828 524.298 831.623 523.888C831.419 523.478 831.111 523.171 830.804 522.864C830.445 522.607 830.035 522.351 829.523 522.197C829.01 522.044 828.498 521.941 827.935 521.941C827.371 521.941 826.859 521.993 826.346 522.197C825.834 522.351 825.424 522.556 825.065 522.864C824.707 523.12 824.399 523.478 824.194 523.888C823.989 524.298 823.887 524.657 823.887 525.118C823.887 525.579 823.989 525.938 824.194 526.296C824.399 526.655 824.656 526.962 825.014 527.219C825.373 527.475 825.783 527.68 826.295 527.833C826.807 527.987 827.32 528.038 827.883 528.038C828.447 528.038 829.01 527.987 829.472 527.833M825.578 560.931H830.394V532.906H825.578V560.931ZM855.14 554.322C853.962 556.678 851.81 557.857 848.685 557.857C845.815 557.857 843.715 556.832 842.434 554.885C841.102 552.887 840.436 550.377 840.436 547.405C840.436 544.433 841.102 541.615 842.434 539.412C843.766 537.209 845.867 536.082 848.736 536.082C852.015 536.082 854.269 537.363 855.653 539.976C856.472 541.615 856.933 543.767 856.933 546.38C856.933 549.301 856.37 551.914 855.191 554.322M858.06 535.621C855.55 533.213 852.476 531.983 848.838 531.983C844.791 531.983 841.563 533.367 839.155 536.185C836.747 539.003 835.517 542.743 835.517 547.456C835.517 551.862 836.644 555.398 838.95 558.011C841.256 560.624 844.33 561.956 848.172 561.956C852.835 561.956 856.267 560.47 858.47 557.498C860.673 554.527 861.801 550.786 861.801 546.278C861.801 541.769 860.52 538.029 858.06 535.621ZM867.436 560.931H872.15V546.175C872.15 544.331 872.304 542.948 872.509 541.923C872.765 540.949 873.277 539.976 874.046 539.054C875.019 537.875 876.146 537.107 877.478 536.748C878.196 536.543 879.118 536.441 880.245 536.441C882.448 536.441 883.985 537.312 884.805 539.054C885.317 540.13 885.574 541.513 885.574 543.204V560.931H890.39V542.896C890.39 540.078 890.031 537.875 889.211 536.338C887.828 533.572 885.112 532.137 881.116 532.137C879.272 532.137 877.632 532.496 876.146 533.213C874.661 533.93 873.226 535.109 871.894 536.748V532.752H867.385V560.88L867.436 560.931Z" fill="#4C83C3"/>
<path d="M556.134 1059.65C554.853 1059.65 553.674 1059.85 552.598 1060.16C551.574 1060.47 550.754 1060.93 550.037 1061.49C549.422 1062 548.961 1062.57 548.551 1063.23C548.243 1063.75 548.141 1064.31 548.141 1064.92C548.141 1065.44 548.243 1065.85 548.448 1066.26C548.756 1066.82 549.217 1067.33 549.78 1067.74C550.395 1068.2 551.266 1068.61 552.24 1068.87C554.545 1069.54 557.568 1069.54 559.822 1068.87C560.796 1068.61 561.616 1068.2 562.23 1067.74C562.794 1067.28 563.255 1066.82 563.563 1066.26C563.768 1065.85 563.87 1065.44 563.87 1064.92C563.87 1064.31 563.716 1063.8 563.46 1063.23C563.101 1062.57 562.64 1062 562.025 1061.54C561.308 1060.98 560.488 1060.52 559.464 1060.21C558.439 1059.9 557.261 1059.7 556.031 1059.7M556.134 1078.91C553.879 1078.91 551.727 1078.6 549.729 1078.04C547.577 1077.43 545.682 1076.5 544.093 1075.32C542.454 1074.1 541.173 1072.61 540.2 1070.92C539.124 1069.07 538.611 1067.02 538.611 1064.87C538.611 1062.72 539.124 1060.57 540.2 1058.67C541.173 1056.88 542.505 1055.29 544.145 1054.01C545.733 1052.78 547.577 1051.81 549.678 1051.09C553.726 1049.76 558.593 1049.76 562.589 1051.09C564.639 1051.76 566.483 1052.73 568.071 1054.01C569.711 1055.29 571.043 1056.88 572.016 1058.67C573.092 1060.62 573.605 1062.72 573.605 1064.87C573.605 1067.02 573.092 1069.07 572.016 1070.92C571.043 1072.61 569.762 1074.1 568.122 1075.32C566.534 1076.5 564.69 1077.43 562.589 1078.04C560.591 1078.6 558.439 1078.91 556.185 1078.91" fill="#4C83C3"/>
<path d="M608.957 1047.55C607.369 1047.55 605.832 1047.81 604.448 1048.22C603.116 1048.63 602.04 1049.24 601.118 1049.96C600.247 1050.63 599.581 1051.4 599.12 1052.32C598.71 1053.09 598.505 1053.91 598.505 1054.83C598.505 1055.6 598.659 1056.26 599.018 1056.93C599.479 1057.7 600.094 1058.42 600.913 1059.03C601.733 1059.7 602.86 1060.21 604.141 1060.57C607.061 1061.39 610.904 1061.39 613.722 1060.57C615.003 1060.21 616.079 1059.7 616.95 1059.03C617.769 1058.42 618.384 1057.75 618.846 1056.93C619.204 1056.31 619.358 1055.65 619.358 1054.83C619.358 1053.96 619.153 1053.14 618.743 1052.32C618.282 1051.4 617.616 1050.63 616.745 1049.96C615.823 1049.24 614.695 1048.63 613.414 1048.22C612.082 1047.76 610.597 1047.55 608.957 1047.55ZM608.957 1070.66C606.344 1070.66 603.834 1070.35 601.528 1069.69C599.069 1068.97 596.917 1067.95 595.124 1066.56C593.279 1065.18 591.793 1063.49 590.718 1061.59C589.539 1059.54 588.924 1057.24 588.924 1054.78C588.924 1052.32 589.539 1049.96 590.718 1047.76C591.845 1045.71 593.331 1043.92 595.226 1042.43C597.019 1041.05 599.12 1039.92 601.528 1039.1C606.242 1037.56 611.826 1037.56 616.437 1039.1C618.794 1039.87 620.895 1041 622.688 1042.43C624.533 1043.92 626.07 1045.71 627.145 1047.76C628.324 1049.91 628.939 1052.27 628.939 1054.78C628.939 1057.29 628.324 1059.49 627.145 1061.59C626.07 1063.49 624.584 1065.18 622.739 1066.56C620.946 1067.95 618.794 1068.97 616.386 1069.69C614.081 1070.35 611.621 1070.71 608.957 1070.71" fill="#4C83C3"/>
<path d="M667.722 1035C665.673 1035 663.777 1035.31 662.035 1035.87C660.345 1036.44 658.859 1037.16 657.732 1038.13C656.605 1039 655.733 1040.02 655.067 1041.25C654.504 1042.33 654.196 1043.46 654.196 1044.69C654.196 1045.76 654.453 1046.79 654.965 1047.66C655.58 1048.73 656.399 1049.66 657.475 1050.48C658.603 1051.35 660.037 1052.01 661.677 1052.47C665.366 1053.55 670.13 1053.55 673.717 1052.47C675.356 1052.01 676.791 1051.35 677.918 1050.48C678.994 1049.66 679.814 1048.73 680.429 1047.66C680.941 1046.79 681.197 1045.81 681.197 1044.69C681.197 1043.46 680.941 1042.33 680.326 1041.25C679.66 1040.08 678.789 1039.05 677.662 1038.13C676.483 1037.21 675.049 1036.44 673.358 1035.87C671.667 1035.31 669.772 1035 667.722 1035ZM667.722 1062.77C664.648 1062.77 661.728 1062.36 659.064 1061.65C656.246 1060.83 653.735 1059.65 651.686 1058.06C649.585 1056.47 647.895 1054.52 646.665 1052.37C645.333 1050.02 644.667 1047.45 644.667 1044.69C644.667 1041.92 645.333 1039.21 646.665 1036.75C647.946 1034.39 649.637 1032.34 651.788 1030.65C653.838 1029.01 656.297 1027.73 659.064 1026.86C664.495 1025.06 671.001 1025.12 676.33 1026.86C679.045 1027.78 681.504 1029.06 683.554 1030.65C685.706 1032.34 687.448 1034.39 688.677 1036.75C690.009 1039.21 690.676 1041.87 690.676 1044.69C690.676 1047.51 690.009 1050.02 688.677 1052.37C687.448 1054.52 685.757 1056.42 683.656 1058.06C681.556 1059.65 679.097 1060.83 676.33 1061.65C673.717 1062.41 670.796 1062.77 667.722 1062.77Z" fill="#4C83C3"/>
<path d="M700.257 879.968C698.822 881.402 696.619 881.761 694.826 880.89C692.981 880.019 691.905 878.072 692.162 876.074C692.776 870.54 691.393 866.8 687.807 864.546C681.197 860.447 667.774 862.035 658.449 868.03C655.068 870.182 649.586 874.69 650.354 880.531C650.662 883.144 648.817 885.552 646.204 885.86C643.591 886.167 641.183 884.374 640.876 881.761C638.519 863.624 628.784 857.937 620.997 856.4C608.188 853.787 592.869 860.652 586.157 872.077C580.47 881.761 582.314 892.879 591.332 903.382C592.408 904.663 592.766 906.405 592.254 907.993C591.742 909.581 590.409 910.76 588.77 911.169C555.006 918.598 544.452 934.43 545.784 946.829C547.372 961.482 566.278 977.006 598.095 977.006C599.376 977.006 600.605 977.518 601.476 978.441C602.347 979.363 602.859 980.592 602.859 981.873C602.808 988.226 604.909 993.247 607.778 997.09H750.825C771.575 997.09 788.534 980.131 788.534 959.381V874.537C765.837 855.99 728.743 851.737 700.257 880.07" fill="#4C83C3"/>
<path d="M536.203 947.802C534.512 932.329 545.22 913.116 579.548 903.535C571.914 891.495 571.196 878.584 577.908 867.21C586.72 852.249 606.036 843.539 622.892 847.023C633.446 849.175 641.541 855.836 646.255 865.929C648.151 863.777 650.508 861.779 653.274 860.037C664.085 853.069 681.607 849.482 692.879 856.45C696.824 858.91 699.488 862.394 700.871 866.697C729.716 843.642 764.402 846.613 788.585 862.599V806.189C788.585 785.439 771.626 768.48 750.876 768.48H537.791C517.041 768.48 500.083 785.439 500.083 806.189V959.278C500.083 980.028 517.041 996.987 537.791 996.987H596.66C595.072 993.657 593.996 990.122 593.535 986.382C558.49 984.896 538.252 966.246 536.254 947.802" fill="#4C83C3"/>
<path d="M806.057 936.173C824.143 913.374 815.946 887.347 799.038 871.003C795.862 867.929 792.326 865.111 788.535 862.6V874.435C789.867 875.511 791.199 876.69 792.429 877.868C805.801 890.779 814.818 913.015 796.067 933.201C795.196 934.175 794.734 935.405 794.786 936.685C794.837 937.966 795.452 939.196 796.425 940.016C810.566 952.261 811.386 975.88 798.321 994.99C781.157 1020.1 740.631 1035.26 678.483 1002.37C677.766 1002.01 676.997 1001.8 676.28 1001.8C675.255 1001.8 674.23 1002.11 673.359 1002.78C659.475 1013.33 636.317 1014.92 619.512 1006.47C616.079 1004.73 611.314 1001.7 607.779 996.937H596.661C600.196 1004.37 606.447 1010.57 615.259 1014.97C634.114 1024.45 659.936 1023.12 676.69 1012.1C702.512 1025.32 724.953 1030.75 743.858 1030.75C773.472 1030.75 794.478 1017.48 806.262 1000.32C821.018 978.8 820.71 952.107 806.16 936.071" fill="#4C83C3"/>
<path d="M968.01 838.978C969.547 839.644 970.674 841.079 970.93 842.769L976.054 884.577H994.14V835.443C994.14 833.957 994.806 832.574 995.984 831.703L1004.44 825.196L979.282 817.767C977.386 817.203 976.054 815.512 975.9 813.565C975.798 811.567 976.874 809.723 978.718 808.954L1002.64 798.349L981.69 792.201C980.101 791.74 978.923 790.51 978.462 788.922C978.001 787.333 978.462 785.643 979.538 784.464L994.14 768.53H919.645C920.823 799.322 939.523 826.784 968.061 839.029" fill="#FDBA12"/>
<path d="M1017.66 792.868C1019.55 793.432 1020.93 795.122 1021.04 797.069C1021.19 799.016 1020.06 800.912 1018.22 801.681L994.242 812.286L1015.97 818.742C1017.66 819.254 1018.94 820.637 1019.24 822.431C1019.55 824.173 1018.89 825.966 1017.45 827.042L1003.46 837.75V884.578H1023.24L1028.31 842.924C1028.52 841.234 1029.59 839.697 1031.18 839.031C1059.77 826.785 1078.52 799.324 1079.7 768.48H1006.9L991.578 785.234L1017.66 792.868Z" fill="#FDBA12"/>
<path d="M1028.11 914.243H971.237C968.624 914.243 966.523 912.143 966.523 909.53C966.523 906.917 968.624 904.816 971.237 904.816H1028.11C1030.72 904.816 1032.87 906.917 1032.87 909.53C1032.87 912.143 1030.77 914.243 1028.11 914.243ZM1028.11 932.483H971.237C968.624 932.483 966.523 930.382 966.523 927.769C966.523 925.156 968.624 923.055 971.237 923.055H1028.11C1030.72 923.055 1032.87 925.156 1032.87 927.769C1032.87 930.382 1030.77 932.483 1028.11 932.483ZM1028.11 950.773H971.237C968.624 950.773 966.523 948.673 966.523 946.06C966.523 943.447 968.624 941.346 971.237 941.346H1028.11C1030.72 941.346 1032.87 943.447 1032.87 946.06C1032.87 948.673 1030.77 950.773 1028.11 950.773ZM1009.82 969.064H989.527C986.914 969.064 984.814 966.964 984.814 964.351C984.814 961.738 986.914 959.637 989.527 959.637H1009.82C1012.43 959.637 1014.53 961.738 1014.53 964.351C1014.53 966.964 1012.43 969.064 1009.82 969.064ZM1106.55 768.48H1089.18C1088 802.193 1068.07 832.37 1037.43 846.613L1032.15 889.855C1031.9 892.212 1029.85 894.005 1027.44 894.005H971.8C969.392 894.005 967.394 892.212 967.087 889.855L961.809 846.562C931.12 832.216 911.292 802.09 910.114 768.48H893.462C872.712 768.48 855.754 785.439 855.754 806.189V959.278C855.754 980.028 872.712 996.987 893.462 996.987H1106.55C1127.3 996.987 1144.26 980.028 1144.26 959.278V806.189C1144.26 785.439 1127.3 768.48 1106.55 768.48Z" fill="#FDBA12"/>
<path d="M505.156 1100.74H518.733V1179.44H505.156V1100.74ZM505.156 1100.74H518.733V1179.44H505.156V1100.74ZM511.817 1086.96C510.177 1086.96 508.691 1086.75 507.257 1086.39C505.822 1086.03 504.644 1085.42 503.67 1084.7C502.697 1083.99 501.877 1083.11 501.314 1082.14C500.75 1081.17 500.443 1080.09 500.443 1078.91C500.443 1077.73 500.75 1076.56 501.314 1075.43C501.877 1074.35 502.697 1073.43 503.722 1072.61C504.746 1071.84 505.925 1071.23 507.308 1070.77C508.691 1070.31 510.177 1070.1 511.765 1070.1C513.354 1070.1 514.788 1070.31 516.172 1070.77C517.504 1071.23 518.733 1071.84 519.707 1072.61C520.732 1073.38 521.5 1074.35 522.115 1075.43C522.679 1076.5 522.986 1077.68 522.986 1078.91C522.986 1080.14 522.679 1081.17 522.115 1082.14C521.551 1083.11 520.783 1083.99 519.758 1084.7C518.785 1085.47 517.606 1086.03 516.223 1086.39C514.84 1086.8 513.354 1086.96 511.714 1086.96" fill="#4C83C3"/>
<path d="M601.169 1126.97H588.258C587.489 1122.05 585.696 1118 582.878 1114.78C580.06 1111.55 575.551 1109.91 569.352 1109.91C560.898 1109.91 554.801 1114.06 551.164 1122.31C548.807 1127.69 547.628 1134.3 547.628 1142.19C547.628 1150.08 549.319 1156.79 552.65 1162.22C555.98 1167.65 561.257 1170.37 568.481 1170.37C574.014 1170.37 578.369 1168.68 581.597 1165.29C584.825 1161.91 587.079 1157.3 588.258 1151.46H601.169C599.683 1161.96 595.994 1169.6 590.102 1174.46C584.21 1179.33 576.627 1181.74 567.405 1181.74C557.056 1181.74 548.807 1177.95 542.659 1170.42C536.511 1162.83 533.437 1153.41 533.437 1142.08C533.437 1128.2 536.818 1117.39 543.53 1109.65C550.293 1101.92 558.9 1098.07 569.352 1098.07C578.267 1098.07 585.491 1100.23 591.127 1104.58C596.711 1108.94 600.093 1116.36 601.22 1126.97" fill="#4C83C3"/>
<path d="M669.517 1139.42C669.517 1133.12 668.594 1127.69 666.801 1123.18C663.369 1114.47 657.067 1110.11 647.896 1110.11C638.725 1110.11 632.372 1114.73 628.99 1123.9C627.146 1128.81 626.275 1135.07 626.275 1142.65C626.275 1148.75 627.197 1153.97 628.99 1158.22C632.423 1166.42 638.725 1170.47 647.896 1170.47C654.095 1170.47 659.27 1167.86 663.368 1162.68C667.467 1157.51 669.568 1149.72 669.568 1139.37M613.415 1100.74H626.326V1111.24C628.99 1107.65 631.859 1104.89 635.036 1102.89C639.493 1099.97 644.77 1098.48 650.867 1098.48C659.833 1098.48 667.467 1101.92 673.718 1108.78C679.969 1115.65 683.094 1125.43 683.094 1138.19C683.094 1155.41 678.585 1167.7 669.568 1175.08C663.83 1179.74 657.169 1182.1 649.586 1182.1C643.643 1182.1 638.622 1180.82 634.575 1178.21C632.218 1176.72 629.554 1174.21 626.685 1170.57V1210.94H613.364V1100.69L613.415 1100.74Z" fill="#4C83C3"/>
<path d="M760.97 1126.97H748.059C747.29 1122.05 745.497 1118 742.679 1114.78C739.861 1111.55 735.353 1109.91 729.153 1109.91C720.699 1109.91 714.602 1114.06 710.965 1122.31C708.608 1127.69 707.429 1134.3 707.429 1142.19C707.429 1150.08 709.12 1156.79 712.451 1162.22C715.781 1167.65 721.058 1170.37 728.282 1170.37C733.815 1170.37 738.17 1168.68 741.398 1165.29C744.626 1161.91 746.88 1157.3 748.059 1151.46H760.97C759.484 1161.96 755.795 1169.6 749.903 1174.46C744.011 1179.33 736.428 1181.74 727.206 1181.74C716.857 1181.74 708.608 1177.95 702.46 1170.42C696.312 1162.83 693.238 1153.41 693.238 1142.08C693.238 1128.2 696.619 1117.39 703.331 1109.65C710.094 1101.92 718.701 1098.07 729.153 1098.07C738.068 1098.07 745.292 1100.23 750.928 1104.58C756.512 1108.94 759.894 1116.36 761.021 1126.97" fill="#4C83C3"/>
<path d="M913.24 733.179C912.625 733.179 911.959 733.076 911.344 732.82L860.161 711.66C858.265 710.892 857.138 709.047 857.138 707.101C857.138 706.486 857.24 705.82 857.496 705.256C858.521 702.746 861.39 701.567 863.901 702.592L915.084 723.752C916.98 724.52 918.107 726.365 918.107 728.26C918.107 728.875 918.005 729.541 917.748 730.156C916.98 732.052 915.135 733.179 913.188 733.179" fill="#FDBA12"/>
<path d="M933.529 702.85C932.248 702.85 931.018 702.389 930.045 701.415L891.465 662.887C890.492 661.913 890.031 660.684 890.031 659.403C890.031 658.122 890.492 656.892 891.465 655.919C893.361 654.023 896.486 654.023 898.433 655.919L937.013 694.447C937.986 695.421 938.447 696.65 938.447 697.931C938.447 699.212 937.986 700.442 937.013 701.415C936.039 702.389 934.81 702.85 933.529 702.85Z" fill="#FDBA12"/>
<path d="M963.86 682.611C961.913 682.611 960.12 681.484 959.3 679.589L938.601 629.584C938.345 628.969 938.242 628.303 938.242 627.688C938.242 625.741 939.37 623.948 941.265 623.179C943.776 622.155 946.645 623.333 947.67 625.844L968.368 675.849C968.625 676.463 968.727 677.129 968.727 677.744C968.727 679.691 967.6 681.484 965.704 682.253C965.089 682.509 964.423 682.611 963.808 682.611" fill="#FDBA12"/>
<path d="M999.673 675.49C996.958 675.49 994.755 673.287 994.755 670.571V616.519C994.755 613.803 996.958 611.6 999.673 611.6C1002.39 611.6 1004.59 613.803 1004.59 616.519V670.571C1004.59 673.287 1002.39 675.49 999.673 675.49Z" fill="#FDBA12"/>
<path d="M1035.49 682.611C1034.87 682.611 1034.2 682.509 1033.59 682.253C1031.69 681.484 1030.57 679.64 1030.57 677.744C1030.57 677.129 1030.67 676.463 1030.93 675.848L1051.78 625.536C1052.8 623.025 1055.72 621.847 1058.18 622.872C1060.08 623.64 1061.21 625.485 1061.21 627.432C1061.21 628.046 1061.1 628.712 1060.85 629.276L1039.99 679.588C1039.23 681.484 1037.38 682.611 1035.43 682.611" fill="#FDBA12"/>
<path d="M1065.82 702.849C1064.54 702.849 1063.31 702.388 1062.33 701.414C1061.36 700.441 1060.9 699.211 1060.9 697.93C1060.9 696.65 1061.36 695.42 1062.33 694.447L1101.37 655.457C1103.27 653.561 1106.39 653.561 1108.34 655.457C1109.31 656.43 1109.78 657.66 1109.78 658.941C1109.78 660.222 1109.26 661.451 1108.34 662.425L1069.3 701.414C1068.33 702.388 1067.1 702.849 1065.82 702.849Z" fill="#FDBA12"/>
<path d="M1086.11 733.179C1084.16 733.179 1082.37 732.052 1081.55 730.156C1081.29 729.541 1081.19 728.875 1081.19 728.26C1081.19 726.313 1082.31 724.52 1084.21 723.752L1136.16 702.233C1138.67 701.157 1141.54 702.387 1142.57 704.897C1142.82 705.512 1142.92 706.127 1142.92 706.742C1142.92 708.689 1141.8 710.482 1139.9 711.302L1087.95 732.82C1087.33 733.076 1086.67 733.179 1086.05 733.179" fill="#FDBA12"/>
<path d="M1462.37 768.48H1374.46C1379.43 772.938 1384.8 776.985 1390.13 780.367L1390.44 780.572C1428.35 805.062 1446.13 832.319 1443.21 861.523C1439.78 895.799 1408.42 931.407 1349.86 967.374C1330.14 979.465 1310.57 989.558 1295.04 996.987H1462.37C1483.12 996.987 1500.08 980.028 1500.08 959.278V806.189C1500.08 785.439 1483.12 768.48 1462.37 768.48Z" fill="#B22C1B"/>
<path d="M1433.73 860.599C1436.24 835.238 1419.95 811.004 1385.26 788.614C1380.35 785.489 1369.89 778.316 1360.98 768.53H1249.24C1228.49 768.53 1211.53 785.489 1211.53 806.239V959.328C1211.53 980.078 1228.49 997.037 1249.24 997.037H1272.09C1310.05 980.334 1427.43 923.822 1433.68 860.65" fill="#B22C1B"/>
<path d="M1361.7 701.414C1361.7 701.414 1361.65 701.414 1361.59 701.465C1361.08 701.67 1360.57 701.926 1360.16 702.285C1360.16 702.285 1360.06 702.336 1360.01 702.387C1359.55 702.797 1359.19 703.31 1358.93 703.873C1358.78 704.232 1358.67 704.539 1358.57 704.847C1358.52 705.103 1358.57 705.359 1358.52 705.615C1358.52 705.615 1358.52 705.718 1358.52 705.769C1358.52 706.384 1358.62 706.999 1358.83 707.562L1367.74 730.259H1333.47L1342.38 707.562C1342.38 707.562 1342.38 707.511 1342.38 707.46C1342.59 706.947 1342.69 706.384 1342.69 705.82C1342.69 705.718 1342.69 705.564 1342.69 705.462C1342.69 705.257 1342.69 705 1342.69 704.796C1342.64 704.539 1342.48 704.232 1342.38 703.976C1342.38 703.925 1342.38 703.873 1342.38 703.822C1342.38 703.822 1342.38 703.822 1342.38 703.771C1342.13 703.259 1341.77 702.797 1341.36 702.387C1341.31 702.336 1341.2 702.285 1341.15 702.234C1340.74 701.875 1340.28 701.619 1339.77 701.414C1339.77 701.414 1339.72 701.363 1339.67 701.363C1299.96 687.581 1267.12 640.701 1264.91 594.59C1263.84 571.637 1271.01 551.348 1285.72 535.875C1301.65 519.172 1324.76 509.95 1350.89 509.95C1377.02 509.95 1399.92 519.172 1415.9 535.875C1430.61 551.296 1437.78 571.585 1436.7 594.59C1434.5 640.65 1401.66 687.581 1361.95 701.363M1403.5 712.583C1404.43 714.376 1403.5 715.657 1402.58 716.375C1399.41 718.936 1389.47 720.217 1373.63 708.28C1391.82 704.744 1401.4 708.587 1403.45 712.583M1298.52 716.426C1297.6 715.657 1296.68 714.428 1297.6 712.634C1299.14 709.714 1304.52 706.896 1314.3 706.896C1318.04 706.896 1322.4 707.306 1327.42 708.28C1311.59 720.217 1301.7 718.988 1298.47 716.426M1445.98 595.102C1447.21 569.434 1439.11 546.737 1422.51 529.368C1404.73 510.77 1379.22 500.472 1350.43 500.472C1321.63 500.472 1296.27 510.719 1278.54 529.368C1261.99 546.737 1253.85 569.434 1255.08 595.102C1256.97 634.86 1280.18 675.182 1311.54 697.418C1299.19 697.981 1292.02 702.644 1289.1 708.228C1286.28 713.659 1287.66 719.961 1292.53 723.855C1295.35 726.109 1299.4 727.595 1304.57 727.595C1310.72 727.595 1318.4 725.443 1327.22 719.961L1321.94 733.384C1321.38 734.87 1321.58 736.51 1322.45 737.791C1323.32 739.123 1324.81 739.891 1326.4 739.891H1346.12C1347.3 749.318 1352.42 759.002 1361.03 768.48H1374.45C1366.62 761.41 1357.65 751.163 1355.75 739.891H1374.71C1376.3 739.891 1377.78 739.123 1378.66 737.791C1379.53 736.51 1379.73 734.819 1379.17 733.384L1373.89 719.961C1382.7 725.443 1390.39 727.595 1396.49 727.595C1401.66 727.595 1405.71 726.109 1408.58 723.855C1413.44 719.961 1414.78 713.659 1411.96 708.228C1409.04 702.644 1401.86 697.981 1389.57 697.418C1420.87 675.182 1444.08 634.86 1445.98 595.102Z" fill="#B22C1B"/>
<path d="M825.165 1117.9H812.389V1056.35H825.165V1117.9ZM877.482 1087.25V1117.9H865.29V1090.21C865.29 1087.82 864.97 1085.98 864.33 1084.7C863.161 1082.36 860.934 1081.19 857.649 1081.19C853.613 1081.19 850.844 1082.91 849.341 1086.33C848.561 1088.14 848.171 1090.45 848.171 1093.26V1117.9H836.313V1072.47H847.796V1079.11C849.327 1076.77 850.774 1075.08 852.138 1074.06C854.588 1072.22 857.691 1071.3 861.449 1071.3C866.153 1071.3 869.994 1072.54 872.973 1075.02C875.979 1077.46 877.482 1081.54 877.482 1087.25ZM883.829 1081.28V1072.8H890.175V1060.11H901.95V1072.8H909.34V1081.28H901.95V1105.33C901.95 1107.19 902.186 1108.36 902.659 1108.84C903.133 1109.28 904.58 1109.5 907.002 1109.5C907.364 1109.5 907.739 1109.5 908.129 1109.5C908.547 1109.48 908.95 1109.45 909.34 1109.42V1118.31L903.703 1118.52C898.08 1118.72 894.239 1117.74 892.179 1115.6C890.843 1114.24 890.175 1112.13 890.175 1109.29V1081.28H883.829ZM925.665 1090.59H944.162C943.967 1087.44 943.007 1085.06 941.281 1083.45C939.583 1081.81 937.468 1080.99 934.935 1080.99C932.179 1080.99 930.036 1081.85 928.505 1083.57C927.002 1085.3 926.055 1087.64 925.665 1090.59ZM952.68 1080.03C954.461 1082.73 955.616 1085.86 956.145 1089.42C956.452 1091.51 956.577 1094.51 956.521 1098.44H925.373C925.54 1103 926.974 1106.21 929.674 1108.04C931.316 1109.18 933.292 1109.75 935.603 1109.75C938.052 1109.75 940.043 1109.06 941.573 1107.67C942.409 1106.91 943.146 1105.87 943.786 1104.53H955.937C955.63 1107.23 954.225 1109.98 951.72 1112.76C947.823 1117.19 942.367 1119.4 935.352 1119.4C929.562 1119.4 924.455 1117.53 920.029 1113.8C915.603 1110.07 913.39 1104.01 913.39 1095.6C913.39 1087.72 915.38 1081.68 919.361 1077.48C923.369 1073.28 928.56 1071.17 934.935 1071.17C938.72 1071.17 942.13 1071.88 945.164 1073.3C948.198 1074.72 950.704 1076.96 952.68 1080.03ZM990.884 1071.38V1083.57C990.133 1083.49 989.464 1083.44 988.88 1083.41C988.295 1083.38 987.822 1083.37 987.46 1083.37C982.673 1083.37 979.458 1084.92 977.815 1088.04C976.897 1089.8 976.437 1092.5 976.437 1096.14V1117.9H964.454V1072.38H975.811V1080.32C977.648 1077.28 979.249 1075.21 980.613 1074.1C982.84 1072.23 985.735 1071.3 989.297 1071.3C989.52 1071.3 989.701 1071.31 989.84 1071.34C990.007 1071.34 990.355 1071.36 990.884 1071.38ZM1039.15 1087.25V1117.9H1026.96V1090.21C1026.96 1087.82 1026.64 1085.98 1026 1084.7C1024.83 1082.36 1022.6 1081.19 1019.32 1081.19C1015.28 1081.19 1012.51 1082.91 1011.01 1086.33C1010.23 1088.14 1009.84 1090.45 1009.84 1093.26V1117.9H997.982V1072.47H1009.46V1079.11C1011 1076.77 1012.44 1075.08 1013.81 1074.06C1016.26 1072.22 1019.36 1071.3 1023.12 1071.3C1027.82 1071.3 1031.66 1072.54 1034.64 1075.02C1037.65 1077.46 1039.15 1081.54 1039.15 1087.25ZM1075.27 1095.77C1074.52 1096.24 1073.75 1096.63 1072.97 1096.94C1072.22 1097.21 1071.18 1097.48 1069.84 1097.73L1067.17 1098.23C1064.66 1098.68 1062.87 1099.22 1061.78 1099.86C1059.94 1100.94 1059.03 1102.63 1059.03 1104.91C1059.03 1106.94 1059.58 1108.42 1060.7 1109.34C1061.84 1110.23 1063.21 1110.67 1064.83 1110.67C1067.39 1110.67 1069.74 1109.92 1071.89 1108.42C1074.06 1106.91 1075.18 1104.17 1075.27 1100.19V1095.77ZM1068.04 1090.21C1070.24 1089.94 1071.82 1089.59 1072.76 1089.17C1074.46 1088.45 1075.31 1087.32 1075.31 1085.79C1075.31 1083.92 1074.66 1082.64 1073.35 1081.95C1072.07 1081.22 1070.17 1080.86 1067.67 1080.86C1064.86 1080.86 1062.87 1081.56 1061.7 1082.95C1060.86 1083.98 1060.31 1085.37 1060.03 1087.12H1048.55C1048.8 1083.14 1049.91 1079.87 1051.89 1077.31C1055.03 1073.3 1060.43 1071.3 1068.09 1071.3C1073.07 1071.3 1077.49 1072.29 1081.36 1074.26C1085.23 1076.24 1087.17 1079.97 1087.17 1085.45V1106.33C1087.17 1107.78 1087.19 1109.53 1087.25 1111.59C1087.33 1113.15 1087.57 1114.21 1087.96 1114.76C1088.35 1115.32 1088.93 1115.78 1089.71 1116.14V1117.9H1076.77C1076.41 1116.98 1076.16 1116.11 1076.02 1115.31C1075.88 1114.5 1075.77 1113.58 1075.68 1112.55C1074.04 1114.33 1072.15 1115.85 1070.01 1117.1C1067.45 1118.58 1064.55 1119.32 1061.32 1119.32C1057.2 1119.32 1053.79 1118.15 1051.09 1115.81C1048.42 1113.44 1047.08 1110.1 1047.08 1105.79C1047.08 1100.19 1049.24 1096.14 1053.56 1093.64C1055.92 1092.27 1059.4 1091.3 1063.99 1090.71L1068.04 1090.21ZM1093.1 1081.28V1072.8H1099.44V1060.11H1111.22V1072.8H1118.61V1081.28H1111.22V1105.33C1111.22 1107.19 1111.45 1108.36 1111.93 1108.84C1112.4 1109.28 1113.85 1109.5 1116.27 1109.5C1116.63 1109.5 1117.01 1109.5 1117.4 1109.5C1117.81 1109.48 1118.22 1109.45 1118.61 1109.42V1118.31L1112.97 1118.52C1107.35 1118.72 1103.51 1117.74 1101.45 1115.6C1100.11 1114.24 1099.44 1112.13 1099.44 1109.29V1081.28H1093.1ZM1132.39 1066.71C1131.38 1066.71 1130.45 1066.58 1129.59 1066.33C1128.75 1066.08 1128.02 1065.73 1127.38 1065.29C1126.76 1064.84 1126.28 1064.31 1125.91 1063.7C1125.58 1063.09 1125.41 1062.42 1125.41 1061.7C1125.41 1060.92 1125.59 1060.19 1125.96 1059.52C1126.32 1058.86 1126.8 1058.29 1127.42 1057.81C1128.06 1057.31 1128.8 1056.92 1129.63 1056.64C1130.49 1056.37 1131.41 1056.23 1132.39 1056.23C1133.39 1056.23 1134.32 1056.37 1135.18 1056.64C1136.07 1056.92 1136.83 1057.31 1137.44 1057.81C1138.08 1058.29 1138.58 1058.86 1138.94 1059.52C1139.3 1060.19 1139.48 1060.92 1139.48 1061.7C1139.48 1062.42 1139.3 1063.09 1138.94 1063.7C1138.61 1064.31 1138.12 1064.84 1137.48 1065.29C1136.87 1065.73 1136.12 1066.08 1135.23 1066.33C1134.36 1066.58 1133.42 1066.71 1132.39 1066.71ZM1126.42 1072.38H1138.48V1117.9H1126.42V1072.38ZM1181.28 1095.22C1181.28 1090.66 1180.35 1087.15 1178.48 1084.7C1176.62 1082.22 1173.94 1080.99 1170.46 1080.99C1166.99 1080.99 1164.3 1082.22 1162.41 1084.7C1160.54 1087.15 1159.61 1090.66 1159.61 1095.22C1159.61 1099.79 1160.54 1103.31 1162.41 1105.79C1164.3 1108.26 1166.99 1109.5 1170.46 1109.5C1173.94 1109.5 1176.62 1108.26 1178.48 1105.79C1180.35 1103.31 1181.28 1099.79 1181.28 1095.22ZM1170.51 1119.48C1162.68 1119.48 1156.85 1117.12 1153.01 1112.38C1149.17 1107.62 1147.25 1101.9 1147.25 1095.22C1147.25 1088.65 1149.17 1082.96 1153.01 1078.15C1156.85 1073.33 1162.68 1070.92 1170.51 1070.92C1178.33 1070.92 1184.16 1073.33 1188 1078.15C1191.84 1082.96 1193.76 1088.65 1193.76 1095.22C1193.76 1101.9 1191.84 1107.62 1188 1112.38C1184.16 1117.12 1178.33 1119.48 1170.51 1119.48ZM1243.57 1087.25V1117.9H1231.38V1090.21C1231.38 1087.82 1231.06 1085.98 1230.42 1084.7C1229.25 1082.36 1227.03 1081.19 1223.74 1081.19C1219.71 1081.19 1216.94 1082.91 1215.43 1086.33C1214.65 1088.14 1214.26 1090.45 1214.26 1093.26V1117.9H1202.41V1072.47H1213.89V1079.11C1215.42 1076.77 1216.87 1075.08 1218.23 1074.06C1220.68 1072.22 1223.78 1071.3 1227.54 1071.3C1232.25 1071.3 1236.09 1072.54 1239.07 1075.02C1242.07 1077.46 1243.57 1081.54 1243.57 1087.25ZM1279.69 1095.77C1278.94 1096.24 1278.17 1096.63 1277.39 1096.94C1276.64 1097.21 1275.6 1097.48 1274.26 1097.73L1271.59 1098.23C1269.09 1098.68 1267.29 1099.22 1266.21 1099.86C1264.37 1100.94 1263.45 1102.63 1263.45 1104.91C1263.45 1106.94 1264.01 1108.42 1265.12 1109.34C1266.26 1110.23 1267.64 1110.67 1269.25 1110.67C1271.81 1110.67 1274.17 1109.92 1276.31 1108.42C1278.48 1106.91 1279.61 1104.17 1279.69 1100.19V1095.77ZM1272.47 1090.21C1274.67 1089.94 1276.24 1089.59 1277.19 1089.17C1278.88 1088.45 1279.73 1087.32 1279.73 1085.79C1279.73 1083.92 1279.08 1082.64 1277.77 1081.95C1276.49 1081.22 1274.6 1080.86 1272.09 1080.86C1269.28 1080.86 1267.29 1081.56 1266.12 1082.95C1265.29 1083.98 1264.73 1085.37 1264.45 1087.12H1252.97C1253.22 1083.14 1254.33 1079.87 1256.31 1077.31C1259.45 1073.3 1264.86 1071.3 1272.51 1071.3C1277.49 1071.3 1281.92 1072.29 1285.79 1074.26C1289.66 1076.24 1291.59 1079.97 1291.59 1085.45V1106.33C1291.59 1107.78 1291.62 1109.53 1291.67 1111.59C1291.76 1113.15 1291.99 1114.21 1292.38 1114.76C1292.77 1115.32 1293.36 1115.78 1294.14 1116.14V1117.9H1281.19C1280.83 1116.98 1280.58 1116.11 1280.44 1115.31C1280.3 1114.5 1280.19 1113.58 1280.11 1112.55C1278.47 1114.33 1276.57 1115.85 1274.43 1117.1C1271.87 1118.58 1268.97 1119.32 1265.75 1119.32C1261.63 1119.32 1258.22 1118.15 1255.52 1115.81C1252.84 1113.44 1251.51 1110.1 1251.51 1105.79C1251.51 1100.19 1253.67 1096.14 1257.98 1093.64C1260.35 1092.27 1263.83 1091.3 1268.42 1090.71L1272.47 1090.21ZM1314.35 1117.9H1302.45V1056.35H1314.35V1117.9ZM1356.73 1062.78C1361.74 1057.72 1368.11 1055.18 1375.85 1055.18C1386.2 1055.18 1393.78 1058.58 1398.56 1065.37C1401.21 1069.18 1402.63 1073.01 1402.82 1076.85H1389.96C1389.13 1073.9 1388.06 1071.68 1386.75 1070.17C1384.41 1067.5 1380.94 1066.16 1376.35 1066.16C1371.67 1066.16 1367.99 1068.06 1365.29 1071.84C1362.59 1075.6 1361.24 1080.93 1361.24 1087.83C1361.24 1094.74 1362.66 1099.91 1365.49 1103.37C1368.36 1106.79 1371.99 1108.5 1376.39 1108.5C1380.9 1108.5 1384.34 1107.03 1386.71 1104.08C1388.01 1102.49 1389.1 1100.11 1389.96 1096.94H1402.7C1401.58 1103.64 1398.73 1109.1 1394.14 1113.3C1389.57 1117.51 1383.71 1119.61 1376.56 1119.61C1367.71 1119.61 1360.75 1116.77 1355.68 1111.09C1350.62 1105.38 1348.08 1097.56 1348.08 1087.62C1348.08 1076.88 1350.96 1068.6 1356.73 1062.78ZM1442.82 1095.22C1442.82 1090.66 1441.89 1087.15 1440.02 1084.7C1438.16 1082.22 1435.49 1080.99 1432.01 1080.99C1428.53 1080.99 1425.84 1082.22 1423.95 1084.7C1422.08 1087.15 1421.15 1090.66 1421.15 1095.22C1421.15 1099.79 1422.08 1103.31 1423.95 1105.79C1425.84 1108.26 1428.53 1109.5 1432.01 1109.5C1435.49 1109.5 1438.16 1108.26 1440.02 1105.79C1441.89 1103.31 1442.82 1099.79 1442.82 1095.22ZM1432.05 1119.48C1424.23 1119.48 1418.4 1117.12 1414.55 1112.38C1410.71 1107.62 1408.79 1101.9 1408.79 1095.22C1408.79 1088.65 1410.71 1082.96 1414.55 1078.15C1418.4 1073.33 1424.23 1070.92 1432.05 1070.92C1439.87 1070.92 1445.7 1073.33 1449.54 1078.15C1453.38 1082.96 1455.31 1088.65 1455.31 1095.22C1455.31 1101.9 1453.38 1107.62 1449.54 1112.38C1445.7 1117.12 1439.87 1119.48 1432.05 1119.48ZM1476.02 1117.9H1464.12V1056.35H1476.02V1117.9ZM1499.81 1117.9H1487.91V1056.35H1499.81V1117.9ZM1520.15 1090.59H1538.65C1538.45 1087.44 1537.49 1085.06 1535.76 1083.45C1534.07 1081.81 1531.95 1080.99 1529.42 1080.99C1526.66 1080.99 1524.52 1081.85 1522.99 1083.57C1521.48 1085.3 1520.54 1087.64 1520.15 1090.59ZM1547.16 1080.03C1548.94 1082.73 1550.1 1085.86 1550.63 1089.42C1550.93 1091.51 1551.06 1094.51 1551 1098.44H1519.86C1520.02 1103 1521.46 1106.21 1524.16 1108.04C1525.8 1109.18 1527.78 1109.75 1530.09 1109.75C1532.54 1109.75 1534.53 1109.06 1536.06 1107.67C1536.89 1106.91 1537.63 1105.87 1538.27 1104.53H1550.42C1550.11 1107.23 1548.71 1109.98 1546.2 1112.76C1542.31 1117.19 1536.85 1119.4 1529.84 1119.4C1524.05 1119.4 1518.94 1117.53 1514.51 1113.8C1510.09 1110.07 1507.87 1104.01 1507.87 1095.6C1507.87 1087.72 1509.86 1081.68 1513.84 1077.48C1517.85 1073.28 1523.04 1071.17 1529.42 1071.17C1533.2 1071.17 1536.61 1071.88 1539.65 1073.3C1542.68 1074.72 1545.19 1076.96 1547.16 1080.03ZM1588.54 1094.93C1588.54 1090.62 1587.62 1087.33 1585.78 1085.08C1583.98 1082.82 1581.54 1081.7 1578.48 1081.7C1574.3 1081.7 1571.42 1083.66 1569.83 1087.58C1569 1089.67 1568.58 1092.25 1568.58 1095.31C1568.58 1097.95 1569.03 1100.3 1569.92 1102.36C1571.53 1106.21 1574.43 1108.13 1578.6 1108.13C1581.39 1108.13 1583.74 1107.08 1585.66 1104.99C1587.58 1102.88 1588.54 1099.52 1588.54 1094.93ZM1581.61 1072.34C1584.5 1073.54 1586.84 1075.74 1588.62 1078.94V1072.38H1600.19V1115.56C1600.19 1121.43 1599.2 1125.86 1597.22 1128.84C1593.83 1133.96 1587.32 1136.52 1577.68 1136.52C1571.87 1136.52 1567.12 1135.38 1563.45 1133.09C1559.77 1130.81 1557.74 1127.4 1557.35 1122.86H1570.29C1570.63 1124.26 1571.17 1125.26 1571.92 1125.87C1573.2 1126.96 1575.36 1127.5 1578.39 1127.5C1582.68 1127.5 1585.55 1126.07 1587 1123.2C1587.94 1121.36 1588.42 1118.27 1588.42 1113.93V1111.01C1587.27 1112.96 1586.05 1114.42 1584.74 1115.39C1582.37 1117.2 1579.3 1118.1 1575.51 1118.1C1569.67 1118.1 1564.99 1116.06 1561.48 1111.97C1558 1107.85 1556.26 1102.28 1556.26 1095.27C1556.26 1088.5 1557.95 1082.82 1561.32 1078.23C1564.69 1073.61 1569.46 1071.3 1575.64 1071.3C1577.92 1071.3 1579.91 1071.65 1581.61 1072.34ZM1617.48 1066.71C1616.47 1066.71 1615.54 1066.58 1614.68 1066.33C1613.84 1066.08 1613.11 1065.73 1612.46 1065.29C1611.85 1064.84 1611.37 1064.31 1611 1063.7C1610.67 1063.09 1610.5 1062.42 1610.5 1061.7C1610.5 1060.92 1610.68 1060.19 1611.05 1059.52C1611.41 1058.86 1611.89 1058.29 1612.51 1057.81C1613.15 1057.31 1613.88 1056.92 1614.72 1056.64C1615.58 1056.37 1616.5 1056.23 1617.48 1056.23C1618.48 1056.23 1619.41 1056.37 1620.27 1056.64C1621.16 1056.92 1621.92 1057.31 1622.53 1057.81C1623.17 1058.29 1623.67 1058.86 1624.03 1059.52C1624.39 1060.19 1624.57 1060.92 1624.57 1061.7C1624.57 1062.42 1624.39 1063.09 1624.03 1063.7C1623.7 1064.31 1623.21 1064.84 1622.57 1065.29C1621.96 1065.73 1621.21 1066.08 1620.31 1066.33C1619.45 1066.58 1618.51 1066.71 1617.48 1066.71ZM1611.5 1072.38H1623.57V1117.9H1611.5V1072.38ZM1660.23 1095.77C1659.48 1096.24 1658.71 1096.63 1657.93 1096.94C1657.18 1097.21 1656.14 1097.48 1654.8 1097.73L1652.13 1098.23C1649.63 1098.68 1647.83 1099.22 1646.74 1099.86C1644.91 1100.94 1643.99 1102.63 1643.99 1104.91C1643.99 1106.94 1644.55 1108.42 1645.66 1109.34C1646.8 1110.23 1648.18 1110.67 1649.79 1110.67C1652.35 1110.67 1654.71 1109.92 1656.85 1108.42C1659.02 1106.91 1660.15 1104.17 1660.23 1100.19V1095.77ZM1653.01 1090.21C1655.21 1089.94 1656.78 1089.59 1657.73 1089.17C1659.42 1088.45 1660.27 1087.32 1660.27 1085.79C1660.27 1083.92 1659.62 1082.64 1658.31 1081.95C1657.03 1081.22 1655.14 1080.86 1652.63 1080.86C1649.82 1080.86 1647.83 1081.56 1646.66 1082.95C1645.83 1083.98 1645.27 1085.37 1644.99 1087.12H1633.51C1633.76 1083.14 1634.87 1079.87 1636.85 1077.31C1639.99 1073.3 1645.39 1071.3 1653.05 1071.3C1658.03 1071.3 1662.46 1072.29 1666.33 1074.26C1670.2 1076.24 1672.13 1079.97 1672.13 1085.45V1106.33C1672.13 1107.78 1672.16 1109.53 1672.21 1111.59C1672.3 1113.15 1672.53 1114.21 1672.92 1114.76C1673.31 1115.32 1673.9 1115.78 1674.68 1116.14V1117.9H1661.73C1661.37 1116.98 1661.12 1116.11 1660.98 1115.31C1660.84 1114.5 1660.73 1113.58 1660.65 1112.55C1659.01 1114.33 1657.11 1115.85 1654.97 1117.1C1652.41 1118.58 1649.51 1119.32 1646.29 1119.32C1642.17 1119.32 1638.76 1118.15 1636.06 1115.81C1633.38 1113.44 1632.05 1110.1 1632.05 1105.79C1632.05 1100.19 1634.2 1096.14 1638.52 1093.64C1640.88 1092.27 1644.36 1091.3 1648.96 1090.71L1653.01 1090.21ZM1678.06 1081.28V1072.8H1684.41V1060.11H1696.18V1072.8H1703.57V1081.28H1696.18V1105.33C1696.18 1107.19 1696.42 1108.36 1696.89 1108.84C1697.36 1109.28 1698.81 1109.5 1701.23 1109.5C1701.59 1109.5 1701.97 1109.5 1702.36 1109.5C1702.78 1109.48 1703.18 1109.45 1703.57 1109.42V1118.31L1697.93 1118.52C1692.31 1118.72 1688.47 1117.74 1686.41 1115.6C1685.07 1114.24 1684.41 1112.13 1684.41 1109.29V1081.28H1678.06ZM1719.9 1090.59H1738.39C1738.2 1087.44 1737.24 1085.06 1735.51 1083.45C1733.81 1081.81 1731.7 1080.99 1729.17 1080.99C1726.41 1080.99 1724.27 1081.85 1722.74 1083.57C1721.23 1085.3 1720.29 1087.64 1719.9 1090.59ZM1746.91 1080.03C1748.69 1082.73 1749.85 1085.86 1750.38 1089.42C1750.68 1091.51 1750.81 1094.51 1750.75 1098.44H1719.6C1719.77 1103 1721.2 1106.21 1723.9 1108.04C1725.55 1109.18 1727.52 1109.75 1729.83 1109.75C1732.28 1109.75 1734.27 1109.06 1735.8 1107.67C1736.64 1106.91 1737.38 1105.87 1738.02 1104.53H1750.17C1749.86 1107.23 1748.46 1109.98 1745.95 1112.76C1742.05 1117.19 1736.6 1119.4 1729.58 1119.4C1723.79 1119.4 1718.69 1117.53 1714.26 1113.8C1709.83 1110.07 1707.62 1104.01 1707.62 1095.6C1707.62 1087.72 1709.61 1081.68 1713.59 1077.48C1717.6 1073.28 1722.79 1071.17 1729.17 1071.17C1732.95 1071.17 1736.36 1071.88 1739.39 1073.3C1742.43 1074.72 1744.93 1076.96 1746.91 1080.03Z" fill="#4C83C3"/>
<path d="M838.443 1158.65H826.46V1176.77H838.443C841.477 1176.77 843.829 1176.03 845.499 1174.56C847.197 1173.08 848.046 1170.74 848.046 1167.54C848.046 1164.34 847.197 1162.06 845.499 1160.69C843.829 1159.33 841.477 1158.65 838.443 1158.65ZM839.528 1187.37H826.46V1209.5H813.683V1147.96H840.489C846.668 1147.96 851.595 1149.55 855.269 1152.72C858.944 1155.89 860.781 1160.81 860.781 1167.46C860.781 1174.72 858.944 1179.86 855.269 1182.86C851.595 1185.87 846.348 1187.37 839.528 1187.37ZM895.77 1162.99V1175.18C895.019 1175.1 894.351 1175.04 893.766 1175.02C893.181 1174.99 892.708 1174.97 892.346 1174.97C887.559 1174.97 884.344 1176.53 882.701 1179.65C881.783 1181.4 881.324 1184.1 881.324 1187.75V1209.5H869.34V1163.99H880.697V1171.93C882.534 1168.89 884.135 1166.82 885.499 1165.7C887.726 1163.84 890.621 1162.91 894.184 1162.91C894.406 1162.91 894.587 1162.92 894.726 1162.95C894.893 1162.95 895.241 1162.96 895.77 1162.99ZM934.016 1186.83C934.016 1182.27 933.084 1178.76 931.219 1176.31C929.354 1173.83 926.681 1172.59 923.202 1172.59C919.723 1172.59 917.036 1173.83 915.144 1176.31C913.279 1178.76 912.346 1182.27 912.346 1186.83C912.346 1191.4 913.279 1194.92 915.144 1197.39C917.036 1199.87 919.723 1201.11 923.202 1201.11C926.681 1201.11 929.354 1199.87 931.219 1197.39C933.084 1194.92 934.016 1191.4 934.016 1186.83ZM923.244 1211.09C915.422 1211.09 909.59 1208.72 905.749 1203.99C901.908 1199.23 899.987 1193.51 899.987 1186.83C899.987 1180.26 901.908 1174.57 905.749 1169.75C909.59 1164.94 915.422 1162.53 923.244 1162.53C931.066 1162.53 936.897 1164.94 940.738 1169.75C944.58 1174.57 946.5 1180.26 946.5 1186.83C946.5 1193.51 944.58 1199.23 940.738 1203.99C936.897 1208.72 931.066 1211.09 923.244 1211.09ZM984.538 1186.54C984.538 1182.22 983.619 1178.94 981.782 1176.69C979.973 1174.43 977.537 1173.3 974.475 1173.3C970.3 1173.3 967.419 1175.27 965.832 1179.19C964.997 1181.28 964.58 1183.85 964.58 1186.91C964.58 1189.56 965.025 1191.91 965.916 1193.97C967.53 1197.81 970.425 1199.73 974.6 1199.73C977.384 1199.73 979.736 1198.69 981.657 1196.6C983.577 1194.49 984.538 1191.13 984.538 1186.54ZM977.607 1163.95C980.501 1165.15 982.84 1167.35 984.621 1170.55V1163.99H996.187V1207.17C996.187 1213.04 995.199 1217.46 993.222 1220.44C989.826 1225.56 983.313 1228.13 973.682 1228.13C967.864 1228.13 963.118 1226.98 959.444 1224.7C955.77 1222.42 953.738 1219.01 953.348 1214.47H966.291C966.625 1215.86 967.168 1216.87 967.92 1217.48C969.2 1218.56 971.357 1219.11 974.392 1219.11C978.678 1219.11 981.545 1217.67 982.993 1214.81C983.939 1212.97 984.412 1209.88 984.412 1205.54V1202.61C983.271 1204.56 982.046 1206.02 980.738 1207C978.372 1208.81 975.296 1209.71 971.511 1209.71C965.665 1209.71 960.989 1207.67 957.481 1203.57C954.002 1199.45 952.262 1193.89 952.262 1186.87C952.262 1180.11 953.946 1174.43 957.314 1169.84C960.683 1165.22 965.456 1162.91 971.636 1162.91C973.918 1162.91 975.909 1163.25 977.607 1163.95ZM1033.64 1162.99V1175.18C1032.89 1175.1 1032.22 1175.04 1031.64 1175.02C1031.05 1174.99 1030.58 1174.97 1030.22 1174.97C1025.43 1174.97 1022.21 1176.53 1020.57 1179.65C1019.65 1181.4 1019.19 1184.1 1019.19 1187.75V1209.5H1007.21V1163.99H1018.57V1171.93C1020.4 1168.89 1022 1166.82 1023.37 1165.7C1025.59 1163.84 1028.49 1162.91 1032.05 1162.91C1032.28 1162.91 1032.46 1162.92 1032.6 1162.95C1032.76 1162.95 1033.11 1162.96 1033.64 1162.99ZM1065.75 1187.37C1065 1187.85 1064.23 1188.24 1063.45 1188.54C1062.7 1188.82 1061.66 1189.09 1060.32 1189.34L1057.65 1189.84C1055.14 1190.28 1053.35 1190.83 1052.26 1191.47C1050.42 1192.55 1049.51 1194.24 1049.51 1196.52C1049.51 1198.55 1050.06 1200.03 1051.18 1200.94C1052.32 1201.83 1053.69 1202.28 1055.31 1202.28C1057.87 1202.28 1060.22 1201.53 1062.37 1200.03C1064.54 1198.52 1065.66 1195.78 1065.75 1191.8V1187.37ZM1058.52 1181.82C1060.72 1181.54 1062.3 1181.19 1063.24 1180.78C1064.94 1180.05 1065.79 1178.93 1065.79 1177.4C1065.79 1175.53 1065.14 1174.25 1063.83 1173.55C1062.55 1172.83 1060.65 1172.47 1058.15 1172.47C1055.34 1172.47 1053.35 1173.16 1052.18 1174.56C1051.34 1175.59 1050.79 1176.98 1050.51 1178.73H1039.03C1039.28 1174.75 1040.39 1171.48 1042.37 1168.92C1045.51 1164.91 1050.91 1162.91 1058.57 1162.91C1063.55 1162.91 1067.97 1163.89 1071.84 1165.87C1075.71 1167.85 1077.65 1171.58 1077.65 1177.06V1197.94C1077.65 1199.39 1077.68 1201.14 1077.73 1203.2C1077.81 1204.76 1078.05 1205.82 1078.44 1206.37C1078.83 1206.93 1079.41 1207.39 1080.19 1207.75V1209.5H1067.25C1066.89 1208.58 1066.64 1207.72 1066.5 1206.91C1066.36 1206.11 1066.25 1205.19 1066.17 1204.16C1064.52 1205.94 1062.63 1207.46 1060.49 1208.71C1057.93 1210.19 1055.03 1210.92 1051.8 1210.92C1047.68 1210.92 1044.27 1209.75 1041.57 1207.42C1038.9 1205.05 1037.56 1201.71 1037.56 1197.39C1037.56 1191.8 1039.72 1187.75 1044.04 1185.24C1046.4 1183.88 1049.88 1182.91 1054.47 1182.32L1058.52 1181.82ZM1150.34 1168.25C1151.62 1169.84 1152.48 1171.79 1152.93 1174.1C1153.21 1175.63 1153.35 1177.87 1153.35 1180.82L1153.26 1209.5H1141.07V1180.53C1141.07 1178.8 1140.79 1177.38 1140.24 1176.27C1139.18 1174.15 1137.23 1173.09 1134.39 1173.09C1131.11 1173.09 1128.84 1174.46 1127.58 1177.19C1126.94 1178.63 1126.62 1180.37 1126.62 1182.41V1209.5H1114.64V1182.41C1114.64 1179.71 1114.36 1177.74 1113.81 1176.52C1112.8 1174.32 1110.84 1173.22 1107.92 1173.22C1104.52 1173.22 1102.24 1174.32 1101.07 1176.52C1100.43 1177.77 1100.11 1179.64 1100.11 1182.11V1209.5H1088.04V1164.08H1099.61V1170.71C1101.08 1168.35 1102.48 1166.66 1103.78 1165.66C1106.1 1163.88 1109.09 1162.99 1112.76 1162.99C1116.24 1162.99 1119.05 1163.76 1121.2 1165.29C1122.92 1166.71 1124.23 1168.53 1125.12 1170.76C1126.68 1168.08 1128.61 1166.12 1130.92 1164.87C1133.37 1163.62 1136.1 1162.99 1139.11 1162.99C1141.11 1162.99 1143.09 1163.38 1145.04 1164.16C1146.99 1164.94 1148.75 1166.3 1150.34 1168.25ZM1226.41 1168.25C1227.69 1169.84 1228.56 1171.79 1229 1174.1C1229.28 1175.63 1229.42 1177.87 1229.42 1180.82L1229.34 1209.5H1217.15V1180.53C1217.15 1178.8 1216.87 1177.38 1216.31 1176.27C1215.25 1174.15 1213.3 1173.09 1210.46 1173.09C1207.18 1173.09 1204.91 1174.46 1203.66 1177.19C1203.02 1178.63 1202.7 1180.37 1202.7 1182.41V1209.5H1190.72V1182.41C1190.72 1179.71 1190.44 1177.74 1189.88 1176.52C1188.88 1174.32 1186.92 1173.22 1183.99 1173.22C1180.6 1173.22 1178.31 1174.32 1177.15 1176.52C1176.51 1177.77 1176.19 1179.64 1176.19 1182.11V1209.5H1164.12V1164.08H1175.68V1170.71C1177.16 1168.35 1178.55 1166.66 1179.86 1165.66C1182.17 1163.88 1185.16 1162.99 1188.84 1162.99C1192.32 1162.99 1195.13 1163.76 1197.27 1165.29C1199 1166.71 1200.3 1168.53 1201.2 1170.76C1202.75 1168.08 1204.69 1166.12 1207 1164.87C1209.45 1163.62 1212.18 1162.99 1215.18 1162.99C1217.19 1162.99 1219.16 1163.38 1221.11 1164.16C1223.06 1164.94 1224.83 1166.3 1226.41 1168.25ZM1246.54 1158.31C1245.54 1158.31 1244.6 1158.19 1243.74 1157.94C1242.91 1157.69 1242.17 1157.34 1241.53 1156.89C1240.92 1156.45 1240.43 1155.92 1240.07 1155.31C1239.73 1154.7 1239.57 1154.03 1239.57 1153.3C1239.57 1152.52 1239.75 1151.8 1240.11 1151.13C1240.47 1150.46 1240.96 1149.89 1241.57 1149.42C1242.21 1148.92 1242.95 1148.53 1243.78 1148.25C1244.65 1147.97 1245.57 1147.83 1246.54 1147.83C1247.54 1147.83 1248.47 1147.97 1249.34 1148.25C1250.23 1148.53 1250.98 1148.92 1251.59 1149.42C1252.23 1149.89 1252.73 1150.46 1253.09 1151.13C1253.46 1151.8 1253.64 1152.52 1253.64 1153.3C1253.64 1154.03 1253.46 1154.7 1253.09 1155.31C1252.76 1155.92 1252.27 1156.45 1251.63 1156.89C1251.02 1157.34 1250.27 1157.69 1249.38 1157.94C1248.52 1158.19 1247.57 1158.31 1246.54 1158.31ZM1240.57 1163.99H1252.64V1209.5H1240.57V1163.99ZM1305.45 1178.86V1209.5H1293.26V1181.82C1293.26 1179.43 1292.94 1177.59 1292.3 1176.31C1291.13 1173.97 1288.9 1172.8 1285.62 1172.8C1281.58 1172.8 1278.81 1174.51 1277.31 1177.94C1276.53 1179.75 1276.14 1182.06 1276.14 1184.87V1209.5H1264.28V1164.08H1275.77V1170.71C1277.3 1168.38 1278.75 1166.69 1280.11 1165.66C1282.56 1163.83 1285.66 1162.91 1289.42 1162.91C1294.12 1162.91 1297.97 1164.15 1300.94 1166.62C1303.95 1169.07 1305.45 1173.15 1305.45 1178.86ZM1345.95 1186.54C1345.95 1182.22 1345.04 1178.94 1343.2 1176.69C1341.39 1174.43 1338.95 1173.3 1335.89 1173.3C1331.72 1173.3 1328.84 1175.27 1327.25 1179.19C1326.41 1181.28 1326 1183.85 1326 1186.91C1326 1189.56 1326.44 1191.91 1327.33 1193.97C1328.95 1197.81 1331.84 1199.73 1336.02 1199.73C1338.8 1199.73 1341.15 1198.69 1343.07 1196.6C1344.99 1194.49 1345.95 1191.13 1345.95 1186.54ZM1339.02 1163.95C1341.92 1165.15 1344.26 1167.35 1346.04 1170.55V1163.99H1357.6V1207.17C1357.6 1213.04 1356.61 1217.46 1354.64 1220.44C1351.24 1225.56 1344.73 1228.13 1335.1 1228.13C1329.28 1228.13 1324.53 1226.98 1320.86 1224.7C1317.19 1222.42 1315.15 1219.01 1314.76 1214.47H1327.71C1328.04 1215.86 1328.58 1216.87 1329.34 1217.48C1330.62 1218.56 1332.77 1219.11 1335.81 1219.11C1340.09 1219.11 1342.96 1217.67 1344.41 1214.81C1345.36 1212.97 1345.83 1209.88 1345.83 1205.54V1202.61C1344.69 1204.56 1343.46 1206.02 1342.15 1207C1339.79 1208.81 1336.71 1209.71 1332.93 1209.71C1327.08 1209.71 1322.4 1207.67 1318.9 1203.57C1315.42 1199.45 1313.68 1193.89 1313.68 1186.87C1313.68 1180.11 1315.36 1174.43 1318.73 1169.84C1322.1 1165.22 1326.87 1162.91 1333.05 1162.91C1335.33 1162.91 1337.32 1163.25 1339.02 1163.95ZM1399.48 1154.39C1404.49 1149.32 1410.87 1146.79 1418.6 1146.79C1428.96 1146.79 1436.53 1150.19 1441.32 1156.98C1443.96 1160.79 1445.38 1164.62 1445.58 1168.46H1432.72C1431.88 1165.51 1430.81 1163.28 1429.5 1161.78C1427.16 1159.11 1423.7 1157.77 1419.11 1157.77C1414.43 1157.77 1410.74 1159.66 1408.04 1163.45C1405.34 1167.21 1403.99 1172.54 1403.99 1179.44C1403.99 1186.34 1405.41 1191.52 1408.25 1194.97C1411.12 1198.4 1414.75 1200.11 1419.15 1200.11C1423.66 1200.11 1427.09 1198.63 1429.46 1195.68C1430.77 1194.1 1431.85 1191.72 1432.72 1188.54H1445.45C1444.34 1195.25 1441.49 1200.71 1436.89 1204.91C1432.33 1209.11 1426.47 1211.22 1419.31 1211.22C1410.46 1211.22 1403.5 1208.38 1398.44 1202.7C1393.37 1196.99 1390.84 1189.17 1390.84 1179.23C1390.84 1168.49 1393.72 1160.21 1399.48 1154.39ZM1485.58 1186.83C1485.58 1182.27 1484.64 1178.76 1482.78 1176.31C1480.91 1173.83 1478.24 1172.59 1474.76 1172.59C1471.28 1172.59 1468.6 1173.83 1466.7 1176.31C1464.84 1178.76 1463.91 1182.27 1463.91 1186.83C1463.91 1191.4 1464.84 1194.92 1466.7 1197.39C1468.6 1199.87 1471.28 1201.11 1474.76 1201.11C1478.24 1201.11 1480.91 1199.87 1482.78 1197.39C1484.64 1194.92 1485.58 1191.4 1485.58 1186.83ZM1474.8 1211.09C1466.98 1211.09 1461.15 1208.72 1457.31 1203.99C1453.47 1199.23 1451.55 1193.51 1451.55 1186.83C1451.55 1180.26 1453.47 1174.57 1457.31 1169.75C1461.15 1164.94 1466.98 1162.53 1474.8 1162.53C1482.63 1162.53 1488.46 1164.94 1492.3 1169.75C1496.14 1174.57 1498.06 1180.26 1498.06 1186.83C1498.06 1193.51 1496.14 1199.23 1492.3 1203.99C1488.46 1208.72 1482.63 1211.09 1474.8 1211.09ZM1547.87 1178.86V1209.5H1535.68V1181.82C1535.68 1179.43 1535.36 1177.59 1534.72 1176.31C1533.55 1173.97 1531.32 1172.8 1528.04 1172.8C1524 1172.8 1521.23 1174.51 1519.73 1177.94C1518.95 1179.75 1518.56 1182.06 1518.56 1184.87V1209.5H1506.7V1164.08H1518.19V1170.71C1519.72 1168.38 1521.16 1166.69 1522.53 1165.66C1524.98 1163.83 1528.08 1162.91 1531.84 1162.91C1536.54 1162.91 1540.38 1164.15 1543.36 1166.62C1546.37 1169.07 1547.87 1173.15 1547.87 1178.86ZM1554.22 1172.89V1164.41H1560.57V1151.72H1572.34V1164.41H1579.73V1172.89H1572.34V1196.94C1572.34 1198.8 1572.58 1199.97 1573.05 1200.44C1573.52 1200.89 1574.97 1201.11 1577.39 1201.11C1577.75 1201.11 1578.13 1201.11 1578.52 1201.11C1578.94 1201.08 1579.34 1201.06 1579.73 1201.03V1209.92L1574.09 1210.13C1568.47 1210.32 1564.63 1209.35 1562.57 1207.21C1561.23 1205.84 1560.57 1203.74 1560.57 1200.9V1172.89H1554.22ZM1596.06 1182.2H1614.55C1614.36 1179.05 1613.4 1176.67 1611.67 1175.06C1609.97 1173.41 1607.86 1172.59 1605.33 1172.59C1602.57 1172.59 1600.43 1173.46 1598.9 1175.18C1597.39 1176.91 1596.45 1179.25 1596.06 1182.2ZM1623.07 1171.63C1624.85 1174.33 1626.01 1177.46 1626.54 1181.03C1626.84 1183.12 1626.97 1186.12 1626.91 1190.05H1595.76C1595.93 1194.61 1597.36 1197.81 1600.06 1199.65C1601.71 1200.79 1603.68 1201.36 1605.99 1201.36C1608.44 1201.36 1610.43 1200.67 1611.96 1199.27C1612.8 1198.52 1613.54 1197.48 1614.18 1196.14H1626.33C1626.02 1198.84 1624.62 1201.58 1622.11 1204.37C1618.21 1208.79 1612.76 1211.01 1605.74 1211.01C1599.95 1211.01 1594.85 1209.14 1590.42 1205.41C1585.99 1201.68 1583.78 1195.61 1583.78 1187.21C1583.78 1179.33 1585.77 1173.29 1589.75 1169.09C1593.76 1164.88 1598.95 1162.78 1605.33 1162.78C1609.11 1162.78 1612.52 1163.49 1615.55 1164.91C1618.59 1166.33 1621.09 1168.57 1623.07 1171.63ZM1644.24 1194.97C1644.49 1197.09 1645.03 1198.59 1645.87 1199.48C1647.34 1201.07 1650.07 1201.86 1654.05 1201.86C1656.39 1201.86 1658.24 1201.51 1659.6 1200.82C1661 1200.12 1661.69 1199.08 1661.69 1197.69C1661.69 1196.35 1661.14 1195.34 1660.02 1194.64C1658.91 1193.94 1654.77 1192.75 1647.62 1191.05C1642.47 1189.77 1638.84 1188.17 1636.72 1186.25C1634.61 1184.35 1633.55 1181.63 1633.55 1178.06C1633.55 1173.86 1635.19 1170.26 1638.48 1167.25C1641.79 1164.22 1646.44 1162.7 1652.42 1162.7C1658.1 1162.7 1662.72 1163.84 1666.28 1166.12C1669.88 1168.38 1671.94 1172.29 1672.46 1177.85H1660.56C1660.4 1176.32 1659.97 1175.11 1659.27 1174.22C1657.96 1172.61 1655.74 1171.8 1652.59 1171.8C1650 1171.8 1648.15 1172.2 1647.04 1173.01C1645.95 1173.82 1645.41 1174.76 1645.41 1175.85C1645.41 1177.21 1645.99 1178.2 1647.16 1178.81C1648.33 1179.45 1652.46 1180.55 1659.56 1182.11C1664.29 1183.23 1667.84 1184.91 1670.21 1187.17C1672.55 1189.45 1673.72 1192.3 1673.72 1195.72C1673.72 1200.23 1672.03 1203.92 1668.66 1206.79C1665.32 1209.63 1660.15 1211.05 1653.13 1211.05C1645.98 1211.05 1640.69 1209.55 1637.27 1206.54C1633.87 1203.5 1632.17 1199.65 1632.17 1194.97H1644.24ZM1677.89 1172.89V1164.41H1684.24V1151.72H1696.01V1164.41H1703.4V1172.89H1696.01V1196.94C1696.01 1198.8 1696.25 1199.97 1696.72 1200.44C1697.2 1200.89 1698.64 1201.11 1701.07 1201.11C1701.43 1201.11 1701.8 1201.11 1702.19 1201.11C1702.61 1201.08 1703.01 1201.06 1703.4 1201.03V1209.92L1697.77 1210.13C1692.14 1210.32 1688.3 1209.35 1686.24 1207.21C1684.91 1205.84 1684.24 1203.74 1684.24 1200.9V1172.89H1677.89Z" fill="#4C83C3"/>
</svg>
